<svg width="223" height="77" viewBox="0 0 223 77" fill="none" xmlns="http://www.w3.org/2000/svg">
<g clip-path="url(#clip0_10_3369)">
<path d="M7.59546 22.8778H15.1908V7.62598H207.809V22.8778H215.405V54.1223H207.809V69.3741H15.1908V54.1223H7.59546V22.8778Z" fill="#F44900"/>
<path d="M207.809 0H15.1907V7.62592H207.809V0Z" fill="#B7410E"/>
<path d="M207.809 69.374H15.1907V76.9999H207.809V69.374Z" fill="#B7410E"/>
<path d="M15.1908 7.62598H7.59546V15.2519H15.1908V7.62598Z" fill="#B7410E"/>
<path d="M7.59537 15.252H0V38.4783H7.59537V15.252Z" fill="#B7410E"/>
<path d="M15.1908 15.252H7.59546V22.8779H15.1908V15.252Z" fill="#B7410E"/>
<path d="M15.1908 54.1223H7.59546V61.7482H15.1908V54.1223Z" fill="#B7410E"/>
<path d="M15.1908 61.748H7.59546V69.374H15.1908V61.748Z" fill="#B7410E"/>
<path d="M7.59537 38.4783H0V61.7046H7.59537V38.4783Z" fill="#B7410E"/>
<path d="M207.823 69.344H215.418V61.7181H207.823V69.344Z" fill="#B7410E"/>
<path d="M215.418 61.7473H223.014V38.5209H215.418V61.7473Z" fill="#B7410E"/>
<path d="M207.823 61.718H215.418V54.0921H207.823V61.718Z" fill="#B7410E"/>
<path d="M207.823 22.8777H215.418V15.2518H207.823V22.8777Z" fill="#B7410E"/>
<path d="M207.823 15.252L215.418 15.252V7.62603L207.823 7.62603V15.252Z" fill="#B7410E"/>
<path d="M215.418 38.4924H223.014V15.2661H215.418V38.4924Z" fill="#B7410E"/>
<path d="M33.2893 26.3203H48.4366V29.3707H51.4748V35.4714H48.4366V38.5218H51.4748V44.6225H48.4366V47.6729H33.2893V26.3203ZM45.3985 29.3707H39.3222V35.4714H45.3985V29.3707ZM45.3985 38.4782H39.3222V44.5789H45.3985V38.4782Z" fill="white"/>
<path d="M56.3359 32.4211H62.4122V44.579H68.4885V32.4211H74.5648V44.579H71.5267V47.6294H59.4175V44.579H56.3793V32.4211H56.3359Z" fill="white"/>
<path d="M79.3823 32.4211H85.4586V41.5722H91.5349V32.4211H97.6112V47.6294H94.5731V50.6798H82.4639V47.6294H91.5783V44.579H82.4639V41.5287H79.4257V32.4211H79.3823Z" fill="white"/>
<path d="M125.432 26.3203H131.508V32.421H134.546V35.4714H137.584V26.3203H143.661V47.6293H137.584V41.5286H134.546V38.4782H131.508V47.6293H125.432V26.3203Z" fill="white"/>
<path d="M151.517 32.4211H163.626V35.4715H166.664V44.6226H163.626V47.673H151.517V44.6226H148.479V35.4715H151.517V32.4211ZM160.631 35.4279H154.555V44.579H160.631V35.4279Z" fill="white"/>
<path d="M168.487 32.4211H174.563V44.579H177.601V47.6294H171.525V44.579H168.487V32.4211ZM177.601 38.4783H180.639V44.579H177.601V38.4783ZM183.678 32.4211H189.754V44.579H186.716V47.6294H180.639V44.579H183.678V32.4211Z" fill="white"/>
</g>
<defs>
<clipPath id="clip0_10_3369">
<rect width="223" height="77" fill="white"/>
</clipPath>
</defs>
</svg>
