<svg width="567" height="567" viewBox="0 0 567 567" fill="none" xmlns="http://www.w3.org/2000/svg">
<path d="M316.042 0H250.973V9.29227H316.042V0Z" fill="#BE1D2C"/>
<path d="M353.218 9.29974H316.034V18.592H353.218V9.29974Z" fill="#BE1D2C"/>
<path d="M381.102 18.592H353.218V27.8843H381.102V18.592Z" fill="#BE1D2C"/>
<path d="M399.694 27.8843H381.102V37.1765H399.694V27.8843Z" fill="#BE1D2C"/>
<path d="M418.286 37.184H399.694V46.4763H418.286V37.184Z" fill="#BE1D2C"/>
<path d="M436.878 46.4763H418.286V55.7685H436.878V46.4763Z" fill="#BE1D2C"/>
<path d="M455.463 55.776H436.871V65.0683H455.463V55.776Z" fill="#BE1D2C"/>
<path d="M464.755 65.0683H455.463V74.3605H464.755V65.0683Z" fill="#BE1D2C"/>
<path d="M474.055 74.3605H464.763V83.6528H474.055V74.3605Z" fill="#BE1D2C"/>
<path d="M483.347 83.6603H474.055V92.9526H483.347V83.6603Z" fill="#BE1D2C"/>
<path d="M492.639 92.9526H483.347V102.245H492.639V92.9526Z" fill="#BE1D2C"/>
<path d="M501.939 102.252H492.647V111.545H501.939V102.252Z" fill="#BE1D2C"/>
<path d="M511.231 111.545H501.939V130.137H511.231V111.545Z" fill="#BE1D2C"/>
<path d="M520.531 130.137H511.239V148.729H520.531V130.137Z" fill="#BE1D2C"/>
<path d="M529.823 148.729H520.531V167.321H529.823V148.729Z" fill="#BE1D2C"/>
<path d="M539.116 167.313H529.823V185.905H539.116V167.313Z" fill="#BE1D2C"/>
<path d="M548.415 185.905H539.123V204.497H548.415V185.905Z" fill="#BE1D2C"/>
<path d="M557.708 204.497H548.415V250.973H557.708V204.497Z" fill="#BE1D2C"/>
<path d="M213.789 18.592H250.973V9.29973H213.789V18.592Z" fill="#BE1D2C"/>
<path d="M185.905 27.8917H213.789V18.5995H185.905V27.8917Z" fill="#BE1D2C"/>
<path d="M167.313 37.184H185.905V27.8917L167.313 27.8917V37.184Z" fill="#BE1D2C"/>
<path d="M148.729 46.4763H167.321V37.184H148.729V46.4763Z" fill="#BE1D2C"/>
<path d="M130.129 55.776H148.721V46.4837H130.129V55.776Z" fill="#BE1D2C"/>
<path d="M111.545 65.0683H130.137V55.776H111.545V65.0683Z" fill="#A52636"/>
<path d="M102.252 74.3605H111.545V65.0683H102.252V74.3605Z" fill="#A52636"/>
<path d="M92.96 83.6603H102.252V74.368H92.96V83.6603Z" fill="#A52636"/>
<path d="M83.6603 92.9526H92.9525V83.6603H83.6603V92.9526Z" fill="#A52636"/>
<path d="M74.368 102.252H83.6603V92.96H74.368V102.252Z" fill="#A52636"/>
<path d="M65.0683 111.545H74.3605V102.252H65.0683V111.545Z" fill="#A52636"/>
<path d="M55.776 130.137H65.0683L65.0683 111.545L55.776 111.545V130.137Z" fill="#A52636"/>
<path d="M46.4837 148.721H55.776V130.129H46.4837V148.721Z" fill="#A52636"/>
<path d="M37.184 167.313H46.4763V148.721H37.184V167.313Z" fill="#A52636"/>
<path d="M27.8917 185.905H37.184V167.313H27.8917V185.905Z" fill="#A52636"/>
<path d="M18.592 204.497H27.8843V185.905H18.592V204.497Z" fill="#A52636"/>
<path d="M9.29973 250.973H18.592V204.497L9.29973 204.497V250.973Z" fill="#BE1D2C"/>
<path d="M567 250.973H557.708V316.042H567V250.973Z" fill="#BE1D2C"/>
<path d="M9.29226 250.973H0V316.042H9.29226V250.973Z" fill="#BE1D2C"/>
<path d="M250.966 567H316.034V557.708H250.966V567Z" fill="#BE1D2C"/>
<path d="M213.789 557.715H250.973V548.423H213.789V557.715Z" fill="#BE1D2C"/>
<path d="M185.905 548.416H213.789V539.123H185.905V548.416Z" fill="#BE1D2C"/>
<path d="M167.313 539.123H185.905V529.831H167.313V539.123Z" fill="#BE1D2C"/>
<path d="M148.729 529.824H167.321V520.531H148.729V529.824Z" fill="#BE1D2C"/>
<path d="M130.129 520.531H148.721V511.239H130.129V520.531Z" fill="#BE1D2C"/>
<path d="M111.545 511.239H130.137V501.947H111.545V511.239Z" fill="#BE1D2C"/>
<path d="M102.252 501.939H111.545V492.647H102.252V501.939Z" fill="#BE1D2C"/>
<path d="M92.96 492.647L102.252 492.647V483.355H92.96V492.647Z" fill="#BE1D2C"/>
<path d="M83.6603 483.347H92.9525V474.055H83.6603V483.347Z" fill="#BE1D2C"/>
<path d="M74.368 474.055H83.6603L83.6603 464.763H74.368V474.055Z" fill="#BE1D2C"/>
<path d="M65.0683 464.763H74.3605V455.47H65.0683V464.763Z" fill="#BE1D2C"/>
<path d="M55.776 455.47H65.0683L65.0683 436.878H55.776V455.47Z" fill="#BE1D2C"/>
<path d="M46.4837 436.871H55.776V418.279H46.4837V436.871Z" fill="#BE1D2C"/>
<path d="M37.184 418.286H46.4763V399.694H37.184V418.286Z" fill="#BE1D2C"/>
<path d="M27.8917 399.694H37.184V381.102H27.8917V399.694Z" fill="#BE1D2C"/>
<path d="M18.592 381.11H27.8843V362.518H18.592V381.11Z" fill="#BE1D2C"/>
<path d="M9.29973 362.518H18.592V316.042H9.29973V362.518Z" fill="#BE1D2C"/>
<path d="M353.218 548.416H316.034V557.708H353.218V548.416Z" fill="#BE1D2C"/>
<path d="M381.102 539.123H353.218V548.416H381.102V539.123Z" fill="#A52636"/>
<path d="M399.694 529.824H381.102V539.116H399.694V529.824Z" fill="#A52636"/>
<path d="M418.286 520.531H399.694V529.824H418.286V520.531Z" fill="#A52636"/>
<path d="M436.878 511.239H418.286V520.531H436.878V511.239Z" fill="#A52636"/>
<path d="M455.463 501.939H436.871V511.232H455.463V501.939Z" fill="#A52636"/>
<path d="M464.755 492.647H455.463V501.939H464.755V492.647Z" fill="#A52636"/>
<path d="M474.055 483.347H464.763V492.64H474.055V483.347Z" fill="#A52636"/>
<path d="M483.347 474.055H474.055V483.347H483.347V474.055Z" fill="#A52636"/>
<path d="M492.639 464.763H483.347V474.055H492.639V464.763Z" fill="#A52636"/>
<path d="M501.939 455.463H492.647V464.755H501.939V455.463Z" fill="#A52636"/>
<path d="M511.231 436.871H501.939V455.463H511.231V436.871Z" fill="#A52636"/>
<path d="M520.531 418.286H511.239V436.878H520.531V418.286Z" fill="#A52636"/>
<path d="M529.823 399.694H520.531V418.286H529.823V399.694Z" fill="#A52636"/>
<path d="M539.116 381.102H529.823V399.694H539.116V381.102Z" fill="#A52636"/>
<path d="M548.415 362.51H539.123V381.102H548.415V362.51Z" fill="#A52636"/>
<path d="M557.708 316.034H548.415V362.51H557.708V316.034Z" fill="#A52636"/>
<path d="M102.245 325.334H92.9525V334.626H102.245V325.334Z" fill="#A52636"/>
<path d="M111.537 334.626H102.245V343.918H111.537V334.626Z" fill="#A52636"/>
<path d="M102.245 343.926H92.9525V353.218H102.245V343.926Z" fill="#A52636"/>
<path d="M111.537 316.034H102.245V325.326H111.537V316.034Z" fill="#A52636"/>
<path d="M148.721 316.034H139.429V325.326H148.721V316.034Z" fill="#FF734D"/>
<path d="M167.313 343.926H158.021V353.218H167.313V343.926Z" fill="#FF734D"/>
<path d="M167.313 353.218H158.021V362.51H167.313V353.218Z" fill="#FF734D"/>
<path d="M158.013 362.51H148.721V371.803H158.013V362.51Z" fill="#FF734D"/>
<path d="M148.729 371.81H130.137V381.102H148.729V371.81Z" fill="#A52636"/>
<path d="M130.137 362.51H111.545V371.803H130.137V362.51Z" fill="#A52636"/>
<path d="M111.545 353.218H92.9525V362.51H111.545V353.218Z" fill="#A52636"/>
<path d="M158.013 325.334H148.721V343.926H158.013V325.334Z" fill="#FF734D"/>
<path d="M139.429 306.742H111.545V316.034H139.429V306.742Z" fill="#FF734D"/>
<path d="M474.055 269.565H427.579V278.858H474.055V269.565Z" fill="#FF433E"/>
<path d="M501.939 260.266H474.055V269.558H501.939V260.266Z" fill="#FF433E"/>
<path d="M511.231 269.565H501.939V278.858H511.231V269.565Z" fill="#FF433E"/>
<path d="M520.531 278.858H511.239V288.15H520.531V278.858Z" fill="#FF433E"/>
<path d="M529.823 297.45H520.531V306.742H529.823V297.45Z" fill="#FF433E"/>
<path d="M520.531 288.15H511.239V297.442H520.531V288.15Z" fill="#FF433E"/>
<path d="M520.531 306.742H511.239V316.034H520.531V306.742Z" fill="#FF433E"/>
<path d="M511.231 316.034H501.939V334.626H511.231V316.034Z" fill="#FF433E"/>
<path d="M501.939 334.626H492.647V343.918H501.939V334.626Z" fill="#A52636"/>
<path d="M492.639 343.926H483.347V353.218H492.639V343.926Z" fill="#A52636"/>
<path d="M483.347 353.218H455.463V362.51H483.347V353.218Z" fill="#A52636"/>
<path d="M455.463 362.51H436.871V371.803H455.463V362.51Z" fill="#A52636"/>
<path d="M436.871 343.926H427.579V362.518H436.871V343.926Z" fill="#A52636"/>
<path d="M427.579 325.334H418.286V343.926H427.579V325.334Z" fill="#A52636"/>
<path d="M436.871 306.742H427.579V325.334H436.871V306.742Z" fill="#A52636"/>
<path d="M427.579 278.858H418.286V306.742H427.579V278.858Z" fill="#FF433E"/>
<path d="M474.055 260.266H455.463V269.558H474.055V260.266Z" fill="#7A2130"/>
<path d="M185.905 436.871H167.313V446.163H185.905V436.871Z" fill="#7A2130"/>
<path d="M223.089 427.579H204.497V436.871H223.089V427.579Z" fill="#7A2130"/>
<path d="M241.681 455.463H223.089V464.755H241.681V455.463Z" fill="#7A2130"/>
<path d="M260.273 483.347H223.089V492.64H260.273V483.347Z" fill="#7A2130"/>
<path d="M278.858 436.871H260.266V464.755H278.858V436.871Z" fill="#3D0320"/>
<path d="M316.042 446.171H297.45V464.763H316.042V446.171Z" fill="#3D0320"/>
<path d="M297.442 408.987H269.558V418.279H297.442V408.987Z" fill="#3D0320"/>
<path d="M343.926 427.579H325.334V436.871H343.926V427.579Z" fill="#7A2130"/>
<path d="M362.518 474.055H343.926V492.647H362.518V474.055Z" fill="#7A2130"/>
<path d="M297.45 474.055H278.858V492.647H297.45V474.055Z" fill="#7A2130"/>
<path d="M306.742 427.579H297.45V436.871H306.742V427.579Z" fill="#7A2130"/>
<path d="M334.626 408.987H316.034V418.279H334.626V408.987Z" fill="#3D0320"/>
<path d="M362.518 399.694H343.926V408.987H362.518V399.694Z" fill="#7A2130"/>
<path d="M316.042 399.694H297.45V418.286H316.042V399.694Z" fill="#3D0320"/>
<path d="M325.326 418.286H316.034V427.579H325.326V418.286Z" fill="#7A2130"/>
<path d="M362.518 418.286H343.926V427.579H362.518V418.286Z" fill="#7A2130"/>
<path d="M381.102 446.171H362.51V455.463H381.102V446.171Z" fill="#7A2130"/>
<path d="M343.926 446.171H325.334V455.463H343.926V446.171Z" fill="#7A2130"/>
<path d="M371.81 427.579H353.218V446.171H371.81V427.579Z" fill="#3D0320"/>
<path d="M399.694 418.286H371.81V436.878H399.694V418.286Z" fill="#7A2130"/>
<path d="M408.994 399.694H371.81V418.286H408.994V399.694Z" fill="#7A2130"/>
<path d="M195.197 455.463H167.313V464.755H195.197V455.463Z" fill="#3D0320"/>
<path d="M213.789 446.171H204.497V455.463H213.789V446.171Z" fill="#3D0320"/>
<path d="M223.089 464.763H204.497V474.055H223.089V464.763Z" fill="#3D0320"/>
<path d="M250.973 436.871H232.381V446.163H250.973V436.871Z" fill="#3D0320"/>
<path d="M399.694 381.102H381.102V390.395H399.694V381.102Z" fill="#7A2130"/>
<path d="M427.579 353.218H408.987V371.81H427.579V353.218Z" fill="#7A2130"/>
<path d="M446.171 381.102H427.579V390.395H446.171V381.102Z" fill="#7A2130"/>
<path d="M483.355 371.81H464.763V381.102H483.355V371.81Z" fill="#7A2130"/>
<path d="M483.347 362.51H455.463V371.803H483.347V362.51Z" fill="#7A2130"/>
<path d="M436.878 399.694H418.286V418.286H436.878V399.694Z" fill="#7A2130"/>
<path d="M418.279 381.102H408.987V390.395H418.279V381.102Z" fill="#7A2130"/>
<path d="M539.123 269.565H520.531V297.45H539.123V269.565Z" fill="#7A2130"/>
<path d="M529.823 250.973H520.531V278.858H529.823V250.973Z" fill="#7A2130"/>
<path d="M548.415 232.381H529.823V241.674H548.415V232.381Z" fill="#7A2130"/>
<path d="M511.231 241.674H501.939V260.266H511.231V241.674Z" fill="#7A2130"/>
<path d="M548.415 260.266H539.123V278.858H548.415V260.266Z" fill="#7A2130"/>
<path d="M520.531 343.926H501.939V353.218H520.531V343.926Z" fill="#7A2130"/>
<path d="M539.123 316.034H520.531V334.626H539.123V316.034Z" fill="#7A2130"/>
<path d="M148.729 446.171H130.137V455.463H148.729V446.171Z" fill="#7A2130"/>
<path d="M139.429 436.871H111.545V446.163H139.429V436.871Z" fill="#8E293F"/>
<path d="M92.9525 446.171H74.3605V455.463H92.9525V446.171Z" fill="#8E293F"/>
<path d="M130.137 464.763H111.545V474.055H130.137V464.763Z" fill="#7A2130"/>
<path d="M158.013 455.463H148.721V464.755H158.013V455.463Z" fill="#7A2130"/>
<path d="M83.6528 408.987H74.3605V427.579H83.6528V408.987Z" fill="#8E293F"/>
<path d="M111.537 427.579H102.245V436.871H111.537V427.579Z" fill="#8E293F"/>
<path d="M343.926 390.402H325.334V399.694H343.926V390.402Z" fill="#7A2130"/>
<path d="M353.218 18.592H316.034V27.8843H353.218V18.592Z" fill="#F15A28"/>
<path d="M316.042 9.29974L250.973 9.29973V18.592L316.042 18.592V9.29974Z" fill="#F15A28"/>
<path d="M381.102 27.8843H353.218V37.1765H381.102V27.8843Z" fill="#F15A28"/>
<path d="M399.694 37.184H381.102V46.4763H399.694V37.184Z" fill="#F15A28"/>
<path d="M418.286 46.4763H399.694V55.7685H418.286V46.4763Z" fill="#F15A28"/>
<path d="M436.871 55.776H427.579V65.0683H436.871V55.776Z" fill="#F15A28"/>
<path d="M427.579 55.776H418.286V65.0683H427.579V55.776Z" fill="#F15A28"/>
<path d="M455.463 65.0683H436.871V74.3605H455.463V65.0683Z" fill="#F15A28"/>
<path d="M464.755 74.3605H455.463V83.6528H464.755V74.3605Z" fill="#F15A28"/>
<path d="M474.055 83.6603H464.763V92.9526H474.055V83.6603Z" fill="#F15A28"/>
<path d="M483.347 92.9526H474.055V102.245H483.347V92.9526Z" fill="#F15A28"/>
<path d="M492.639 102.252H483.347V111.545H492.639V102.252Z" fill="#F15A28"/>
<path d="M501.939 111.545H492.647V130.137H501.939V111.545Z" fill="#F15A28"/>
<path d="M511.231 130.137H501.939V148.729H511.231V130.137Z" fill="#F15A28"/>
<path d="M520.531 158.021H511.239V167.313H520.531V158.021Z" fill="#F15A28"/>
<path d="M520.531 148.729H511.239V158.021H520.531V148.729Z" fill="#F15A28"/>
<path d="M529.823 167.313H520.531V185.905H529.823V167.313Z" fill="#F15A28"/>
<path d="M539.116 185.905H529.823V204.497H539.116V185.905Z" fill="#F15A28"/>
<path d="M548.415 204.497H539.123V232.381H548.415V204.497Z" fill="#F15A28"/>
<path d="M334.626 37.184H306.742V55.776H334.626V37.184Z" fill="#F15A28"/>
<path d="M362.518 46.4763H343.926V55.7685H362.518V46.4763Z" fill="#F15A28"/>
<path d="M390.395 55.776H381.102V65.0683H390.395V55.776Z" fill="#F15A28"/>
<path d="M418.279 74.3605H408.987V92.9526H418.279V74.3605Z" fill="#F15A28"/>
<path d="M436.871 92.9526H427.579V102.245H436.871V92.9526Z" fill="#F15A28"/>
<path d="M455.463 92.9526H446.171V102.245H455.463V92.9526Z" fill="#F15A28"/>
<path d="M483.347 111.545H474.055V130.137H483.347V111.545Z" fill="#F15A28"/>
<path d="M464.755 120.837H455.463V130.129H464.755V120.837Z" fill="#F15A28"/>
<path d="M474.055 102.252H464.763V111.545H474.055V102.252Z" fill="#F15A28"/>
<path d="M501.939 139.429H483.347V148.721H501.939V139.429Z" fill="#F15A28"/>
<path d="M511.231 167.313H501.939V176.605H511.231V167.313Z" fill="#F15A28"/>
<path d="M288.15 27.8843H260.266V37.1765H288.15V27.8843Z" fill="#F15A28"/>
<path d="M371.803 65.0683H362.51V74.3605H371.803V65.0683Z" fill="#F15A28"/>
<path d="M399.687 74.3605H390.395V83.6528H399.687V74.3605Z" fill="#F15A28"/>
<path d="M520.531 195.197H511.239V213.789H520.531V195.197Z" fill="#F15A28"/>
<path d="M539.116 223.089H529.823V232.381H539.116V223.089Z" fill="#F15A28"/>
<path d="M548.415 241.674H539.123V260.266H548.415V241.674Z" fill="#F15A28"/>
<path d="M408.987 102.252H390.395V120.844H408.987V102.252Z" fill="#FF834D"/>
<path d="M446.163 130.137H436.871V148.729H446.163V130.137Z" fill="#F15A28"/>
<path d="M483.347 158.021H474.055V176.613H483.347V158.021Z" fill="#F15A28"/>
<path d="M241.681 37.184H223.089V55.776H241.681V37.184Z" fill="#F15A28"/>
<path d="M353.218 111.545H334.626V120.837H353.218V111.545Z" fill="#F15A28"/>
<path d="M390.395 130.137H381.102V139.429H390.395V130.137Z" fill="#F15A28"/>
<path d="M343.918 139.429H316.034V148.721H343.918V139.429Z" fill="#F15A28"/>
<path d="M399.694 158.021H371.81V167.313H399.694V158.021Z" fill="#F15A28"/>
<path d="M260.266 167.313H232.381V176.605H260.266V167.313Z" fill="#F15A28"/>
<path d="M325.334 176.613H306.742V185.905H325.334V176.613Z" fill="#F15A28"/>
<path d="M371.81 176.613H343.926V195.205H371.81V176.613Z" fill="#F15A28"/>
<path d="M288.15 130.137H269.558V148.729H288.15V130.137Z" fill="#F15A28"/>
<path d="M343.926 158.021H325.334V167.313H343.926V158.021Z" fill="#F15A28"/>
<path d="M381.102 120.837H362.51V139.429H381.102V120.837Z" fill="#F15A28"/>
<path d="M306.742 158.021H288.15V167.313H306.742V158.021Z" fill="#F15A28"/>
<path d="M288.15 185.905H269.558V204.497H288.15V185.905Z" fill="#F15A28"/>
<path d="M232.381 204.497H223.089V213.789H232.381V204.497Z" fill="#F15A28"/>
<path d="M213.797 213.789H176.613V232.381H213.797V213.789Z" fill="#F15A28"/>
<path d="M213.797 176.613H176.613V195.205H213.797V176.613Z" fill="#F15A28"/>
<path d="M260.266 185.905H250.973V195.197H260.266V185.905Z" fill="#F15A28"/>
<path d="M278.85 148.729H269.558V167.321H278.85V148.729Z" fill="#F15A28"/>
<path d="M260.266 148.729H241.674V158.021H260.266V148.729Z" fill="#F15A28"/>
<path d="M306.742 139.429H297.45V148.721H306.742V139.429Z" fill="#F15A28"/>
<path d="M362.518 139.429H343.926V148.721H362.518V139.429Z" fill="#F15A28"/>
<path d="M353.218 130.137H343.926V139.429H353.218V130.137Z" fill="#F15A28"/>
<path d="M343.918 176.613H334.626V185.905H343.918V176.613Z" fill="#F15A28"/>
<path d="M316.034 195.197H288.15V213.789H316.034V195.197Z" fill="#F15A28"/>
<path d="M334.626 204.497H325.334V213.789H334.626V204.497Z" fill="#F15A28"/>
<path d="M269.565 213.789H250.973V223.082H269.565V213.789Z" fill="#F15A28"/>
<path d="M232.381 223.089H223.089V241.681H232.381V223.089Z" fill="#F15A28"/>
<path d="M250.966 195.197H241.674V213.789H250.966V195.197Z" fill="#F15A28"/>
<path d="M158.013 241.674H148.721V260.266H158.013V241.674Z" fill="#F15A28"/>
<path d="M167.313 232.381H148.721V250.973H167.313V232.381Z" fill="#F15A28"/>
<path d="M176.613 204.497H158.021V223.089H176.613V204.497Z" fill="#F15A28"/>
<path d="M195.197 204.497H185.905V213.789H195.197V204.497Z" fill="#F15A28"/>
<path d="M139.429 195.197H120.837V213.789H139.429V195.197Z" fill="#F15A28"/>
<path d="M167.313 185.905H148.721V204.497H167.313V185.905Z" fill="#F15A28"/>
<path d="M139.429 232.381H111.545V241.674H139.429V232.381Z" fill="#F15A28"/>
<path d="M102.252 250.973H83.6603V260.266H102.252V250.973Z" fill="#F15A28"/>
<path d="M92.9525 232.381H74.3605V250.973H92.9525V232.381Z" fill="#F15A28"/>
<path d="M55.776 241.674H37.184V260.266H55.776V241.674Z" fill="#F15A28"/>
<path d="M427.579 148.729H408.987V158.021H427.579V148.729Z" fill="#F15A28"/>
<path d="M427.579 176.613H399.694V195.205H427.579V176.613Z" fill="#F15A28"/>
<path d="M408.987 204.497H381.102V223.089H408.987V204.497Z" fill="#F15A28"/>
<path d="M381.102 213.789H353.218V232.381H381.102V213.789Z" fill="#F15A28"/>
<path d="M399.687 176.613H390.395V195.205H399.687V176.613Z" fill="#F15A28"/>
<path d="M464.763 148.729H446.171V167.321H464.763V148.729Z" fill="#F15A28"/>
<path d="M427.579 111.545H408.987V120.837H427.579V111.545Z" fill="#F15A28"/>
<path d="M288.15 232.381H269.558V241.674H288.15V232.381Z" fill="#F15A28"/>
<path d="M325.334 223.089H306.742V232.381H325.334V223.089Z" fill="#F15A28"/>
<path d="M325.326 158.021H316.034V176.613H325.326V158.021Z" fill="#F15A28"/>
<path d="M362.51 158.021H353.218V167.313H362.51V158.021Z" fill="#F15A28"/>
<path d="M306.742 185.905H288.15V195.197H306.742V185.905Z" fill="#F15A28"/>
<path d="M408.987 148.729H390.395V158.021H408.987V148.729Z" fill="#F15A28"/>
<path d="M539.116 241.674H529.823V269.558H539.116V241.674Z" fill="#93223A"/>
<path d="M511.231 260.266H501.939V269.558H511.231V260.266Z" fill="#93223A"/>
<path d="M520.531 250.973H511.239V278.858H520.531V250.973Z" fill="#93223A"/>
<path d="M529.823 232.381H520.531V250.973H529.823V232.381Z" fill="#93223A"/>
<path d="M520.531 241.674H511.239V250.966H520.531V241.674Z" fill="#93223A"/>
<path d="M501.939 250.973H455.463V260.266H501.939V250.973Z" fill="#93223A"/>
<path d="M455.463 260.266H427.579V269.558H455.463V260.266Z" fill="#93223A"/>
<path d="M427.579 269.565H408.987V278.858H427.579V269.565Z" fill="#93223A"/>
<path d="M418.279 278.858H408.987V316.042H418.279V278.858Z" fill="#93223A"/>
<path d="M427.579 306.742H418.286V325.334H427.579V306.742Z" fill="#93223A"/>
<path d="M427.579 343.926H408.987V353.218H427.579V343.926Z" fill="#93223A"/>
<path d="M418.279 325.334H408.987V343.926H418.279V325.334Z" fill="#93223A"/>
<path d="M408.987 353.218H399.694V371.81H408.987V353.218Z" fill="#93223A"/>
<path d="M436.871 362.51H427.579V381.102H436.871V362.51Z" fill="#93223A"/>
<path d="M427.579 371.81H408.987V381.102H427.579V371.81Z" fill="#93223A"/>
<path d="M464.755 371.81H436.871V381.102H464.755V371.81Z" fill="#93223A"/>
<path d="M539.123 204.497H520.531V223.089H539.123V204.497Z" fill="#BE1D2C"/>
<path d="M529.831 223.089H511.239V232.381H529.831V223.089Z" fill="#BE1D2C"/>
<path d="M520.531 232.381H501.939V241.674H520.531V232.381Z" fill="#BE1D2C"/>
<path d="M418.286 260.266H399.694V269.558H418.286V260.266Z" fill="#EF4036"/>
<path d="M446.171 250.973H427.579V260.266H446.171V250.973Z" fill="#EF4036"/>
<path d="M455.463 250.973H446.171V260.266H455.463V250.973Z" fill="#EF4036"/>
<path d="M427.579 260.266H418.286V269.558H427.579V260.266Z" fill="#EF4036"/>
<path d="M427.579 241.674H418.286V250.966H427.579V241.674Z" fill="#EF4036"/>
<path d="M483.355 232.381H446.171V241.674H483.355V232.381Z" fill="#EF4036"/>
<path d="M501.939 241.674H483.347V250.966H501.939V241.674Z" fill="#EF4036"/>
<path d="M483.347 213.789H474.055V223.082H483.347V213.789Z" fill="#EF4036"/>
<path d="M501.939 213.789H492.647V223.082H501.939V213.789Z" fill="#EF4036"/>
<path d="M455.463 195.197H427.579V213.789H455.463V195.197Z" fill="#EF4036"/>
<path d="M464.755 176.613H455.463V195.205H464.755V176.613Z" fill="#EF4036"/>
<path d="M446.163 167.313H436.871V185.905H446.163V167.313Z" fill="#EF4036"/>
<path d="M455.463 185.905H446.171V195.197H455.463V185.905Z" fill="#EF4036"/>
<path d="M464.755 195.197H455.463V213.789H464.755V195.197Z" fill="#EF4036"/>
<path d="M474.055 213.789H464.763V232.381H474.055V213.789Z" fill="#EF4036"/>
<path d="M464.763 213.789H446.171V223.082H464.763V213.789Z" fill="#EF4036"/>
<path d="M483.355 241.674H446.171V250.966H483.355V241.674Z" fill="#EF4036"/>
<path d="M436.871 185.905H427.579V195.197H436.871V185.905Z" fill="#EF4036"/>
<path d="M464.755 223.089H436.871V232.381H464.755V223.089Z" fill="#FF433E"/>
<path d="M427.579 213.789H418.286V232.381H427.579V213.789Z" fill="#EF4036"/>
<path d="M446.171 213.789H427.579V223.082H446.171V213.789Z" fill="#EF4036"/>
<path d="M436.871 223.089H427.579V232.381H436.871V223.089Z" fill="#EF4036"/>
<path d="M446.163 232.381H436.871V241.674H446.163V232.381Z" fill="#EF4036"/>
<path d="M390.395 92.9526H362.51V111.545H390.395V92.9526Z" fill="#EF4036"/>
<path d="M371.81 111.545H353.218V120.837H371.81V111.545Z" fill="#EF4036"/>
<path d="M390.395 120.837H381.102V130.129H390.395V120.837Z" fill="#EF4036"/>
<path d="M390.402 111.545H371.81V120.837H390.402V111.545Z" fill="#EF4036"/>
<path d="M371.81 83.6603H353.218V92.9526H371.81V83.6603Z" fill="#EF4036"/>
<path d="M381.102 65.0683H371.81V83.6603H381.102V65.0683Z" fill="#EF4036"/>
<path d="M353.218 27.8843H325.334V37.1765H353.218V27.8843Z" fill="#EF4036"/>
<path d="M343.918 37.184H334.626V55.776H343.918V37.184Z" fill="#EF4036"/>
<path d="M381.11 37.184H343.926V46.4763H381.11V37.184Z" fill="#EF4036"/>
<path d="M399.694 46.4763H381.102V55.7685H399.694V46.4763Z" fill="#EF4036"/>
<path d="M418.286 55.776H399.694V65.0683H418.286V55.776Z" fill="#EF4036"/>
<path d="M381.102 46.4763H362.51V55.7685H381.102V46.4763Z" fill="#EF4036"/>
<path d="M316.042 18.592L250.973 18.592V27.8843H316.042V18.592Z" fill="#EF4036"/>
<path d="M325.334 27.8843H306.742V37.1765H325.334V27.8843Z" fill="#EF4036"/>
<path d="M260.273 18.592H223.089V27.8843H260.273V18.592Z" fill="#EF4036"/>
<path d="M306.742 27.8843H288.15V37.1765H306.742V27.8843Z" fill="#EF4036"/>
<path d="M483.347 176.613H474.055V195.205H483.347V176.613Z" fill="#EF4036"/>
<path d="M511.239 148.729H492.647V167.321H511.239V148.729Z" fill="#EF4036"/>
<path d="M520.531 167.313H511.239V195.197H520.531V167.313Z" fill="#EF4036"/>
<path d="M529.823 185.905H520.531V204.497H529.823V185.905Z" fill="#EF4036"/>
<path d="M511.231 176.613H501.939V223.089H511.231V176.613Z" fill="#EF4036"/>
<path d="M520.531 213.789H511.239V223.082H520.531V213.789Z" fill="#EF4036"/>
<path d="M511.231 223.089H501.939V232.381H511.231V223.089Z" fill="#EF4036"/>
<path d="M501.939 232.381H483.347V241.674H501.939V232.381Z" fill="#EF4036"/>
<path d="M501.939 167.313H492.647V223.082H501.939V167.313Z" fill="#FF433E"/>
<path d="M492.639 167.313H483.347V204.497H492.639V167.313Z" fill="#FF433E"/>
<path d="M474.055 176.613H464.763V213.797H474.055V176.613Z" fill="#FF433E"/>
<path d="M483.347 195.197H474.055V213.789H483.347V195.197Z" fill="#FF433E"/>
<path d="M492.639 204.497H483.347V232.381H492.639V204.497Z" fill="#FF433E"/>
<path d="M483.347 223.089H474.055V232.381H483.347V223.089Z" fill="#FF433E"/>
<path d="M501.939 223.089H492.647V232.381H501.939V223.089Z" fill="#FF433E"/>
<path d="M306.742 37.184H260.266V55.776H306.742V37.184Z" fill="#FF433E"/>
<path d="M390.395 55.776H316.034V65.0683H390.395V55.776Z" fill="#FF734D"/>
<path d="M399.687 55.776H390.395V65.0683H399.687V55.776Z" fill="#FF734D"/>
<path d="M334.626 37.184H316.034V46.4763H334.626V37.184Z" fill="#FF734D"/>
<path d="M353.218 46.4763H325.334V55.7685H353.218V46.4763Z" fill="#FF734D"/>
<path d="M306.742 27.8843H278.858V37.1765H306.742V27.8843Z" fill="#FF734D"/>
<path d="M269.558 27.8843H260.266V37.1765H269.558V27.8843Z" fill="#FF734D"/>
<path d="M316.034 27.8843H306.742V37.1765H316.034V27.8843Z" fill="#FF734D"/>
<path d="M483.347 176.613H474.055V185.905H483.347V176.613Z" fill="#FF734D"/>
<path d="M501.939 167.313H492.647V185.905H501.939V167.313Z" fill="#FF734D"/>
<path d="M492.639 185.905H483.347V223.089H492.639V185.905Z" fill="#FF734D"/>
<path d="M501.939 213.789H492.647V241.674H501.939V213.789Z" fill="#FF734D"/>
<path d="M427.579 65.0683H381.102V74.3605H427.579V65.0683Z" fill="#FF734D"/>
<path d="M390.395 74.3605H381.102V92.9526H390.395V74.3605Z" fill="#FF734D"/>
<path d="M288.15 55.776H269.558V65.0683H288.15V55.776Z" fill="#FF734D"/>
<path d="M316.042 65.0683H297.45V74.3605H316.042V65.0683Z" fill="#FF734D"/>
<path d="M353.218 65.0683H325.334V74.3605H353.218V65.0683Z" fill="#FF734D"/>
<path d="M381.102 74.3605H362.51V83.6528H381.102V74.3605Z" fill="#FF734D"/>
<path d="M381.102 83.6603H371.81V92.9526H381.102V83.6603Z" fill="#FF734D"/>
<path d="M353.218 83.6603H343.926V92.9526H353.218V83.6603Z" fill="#FF734D"/>
<path d="M474.055 223.089H464.763V241.681H474.055V223.089Z" fill="#FF734D"/>
<path d="M464.763 241.674H446.171V250.966H464.763V241.674Z" fill="#FF734D"/>
<path d="M492.639 241.674H483.347V250.966H492.639V241.674Z" fill="#FF734D"/>
<path d="M436.871 65.0683H427.579V74.3605H436.871V65.0683Z" fill="#FFAB15"/>
<path d="M455.463 74.3605H436.871V83.6528H455.463V74.3605Z" fill="#FFAB15"/>
<path d="M464.755 83.6603H455.463V92.9526H464.755V83.6603Z" fill="#FFAB15"/>
<path d="M474.055 92.9526H464.763V102.245H474.055V92.9526Z" fill="#FFAB15"/>
<path d="M483.347 102.252H474.055V111.545H483.347V102.252Z" fill="#FFAB15"/>
<path d="M492.639 111.545H483.347V130.137H492.639V111.545Z" fill="#FFAB15"/>
<path d="M501.939 130.137H483.347V139.429H501.939V130.137Z" fill="#FFAB15"/>
<path d="M464.755 167.313H455.463V176.605H464.755V167.313Z" fill="#FFAB15"/>
<path d="M455.463 167.313H446.171V185.905H455.463V167.313Z" fill="#FFAB15"/>
<path d="M474.055 167.313H464.763V176.605H474.055V167.313Z" fill="#FFAB15"/>
<path d="M492.639 148.729H483.347V167.321H492.639V148.729Z" fill="#FFAB15"/>
<path d="M436.878 74.3605H418.286V83.6528H436.878V74.3605Z" fill="#FF834D"/>
<path d="M408.987 74.3605H399.694V92.9526H408.987V74.3605Z" fill="#FF834D"/>
<path d="M399.687 83.6603H390.395V102.252H399.687V83.6603Z" fill="#FF834D"/>
<path d="M455.47 83.6603H418.286V92.9526H455.47V83.6603Z" fill="#FF834D"/>
<path d="M464.755 92.9526H455.463V102.245H464.755V92.9526Z" fill="#FF834D"/>
<path d="M464.755 102.252H455.463V120.844H464.755V102.252Z" fill="#FF834D"/>
<path d="M474.055 111.545H464.763V130.137H474.055V111.545Z" fill="#FF834D"/>
<path d="M483.347 130.137H474.055V158.021H483.347V130.137Z" fill="#FF834D"/>
<path d="M474.055 158.021H464.763V167.313H474.055V158.021Z" fill="#FF834D"/>
<path d="M436.871 167.313H427.579V185.905H436.871V167.313Z" fill="#FF834D"/>
<path d="M362.51 167.313H334.626V176.605H362.51V167.313Z" fill="#FF834D"/>
<path d="M362.518 148.729H278.858V158.021H362.518V148.729Z" fill="#FF834D"/>
<path d="M362.51 120.837H353.218V148.721H362.51V120.837Z" fill="#FF834D"/>
<path d="M343.918 130.137H316.034V139.429H343.918V130.137Z" fill="#FF834D"/>
<path d="M353.218 120.837H343.926V130.129H353.218V120.837Z" fill="#FF834D"/>
<path d="M362.51 102.252H353.218V111.545H362.51V102.252Z" fill="#FF834D"/>
<path d="M334.626 111.545H325.334V120.837H334.626V111.545Z" fill="#FF834D"/>
<path d="M343.918 120.837H334.626V130.129H343.918V120.837Z" fill="#FF834D"/>
<path d="M316.034 139.429H306.742V148.721H316.034V139.429Z" fill="#FF834D"/>
<path d="M297.442 130.137H288.15V148.729H297.442V130.137Z" fill="#FF834D"/>
<path d="M269.558 148.729H260.266V167.321H269.558V148.729Z" fill="#FF834D"/>
<path d="M381.102 195.197H353.218V213.789H381.102V195.197Z" fill="#FF834D"/>
<path d="M427.579 195.197H381.102V204.49H427.579V195.197Z" fill="#FF834D"/>
<path d="M436.871 204.497H408.987V213.789H436.871V204.497Z" fill="#FF834D"/>
<path d="M418.279 213.789H408.987V232.381H418.279V213.789Z" fill="#FF834D"/>
<path d="M446.163 185.905H436.871V195.197H446.163V185.905Z" fill="#FF834D"/>
<path d="M474.055 148.729H464.763V158.021H474.055V148.729Z" fill="#FF834D"/>
<path d="M446.163 148.729H436.871V158.021H446.163V148.729Z" fill="#FF834D"/>
<path d="M436.878 167.313H399.694V176.605H436.878V167.313Z" fill="#FF834D"/>
<path d="M390.402 176.613H371.81V195.205H390.402V176.613Z" fill="#FF834D"/>
<path d="M371.803 158.021H362.51V176.613H371.803V158.021Z" fill="#FF834D"/>
<path d="M353.218 158.021H343.926V167.313H353.218V158.021Z" fill="#FF834D"/>
<path d="M557.708 250.973H548.415V316.042H557.708V250.973Z" fill="#F15A28"/>
<path d="M548.415 278.858H539.123V288.15H548.415V278.858Z" fill="#F15A28"/>
<path d="M539.116 297.45H529.823V306.742H539.116V297.45Z" fill="#F15A28"/>
<path d="M529.823 306.742H520.531V316.034H529.823V306.742Z" fill="#F15A28"/>
<path d="M548.415 288.15H539.123V297.442H548.415V288.15Z" fill="#F15A28"/>
<path d="M520.531 316.034H511.239V334.626H520.531V316.034Z" fill="#F15A28"/>
<path d="M511.231 334.626H501.939V343.918H511.231V334.626Z" fill="#F15A28"/>
<path d="M501.939 343.926H492.647V353.218H501.939V343.926Z" fill="#F15A28"/>
<path d="M492.639 353.218H483.347V381.102H492.639V353.218Z" fill="#F15A28"/>
<path d="M548.415 297.45H539.123V362.518H548.415V297.45Z" fill="#FF433E"/>
<path d="M539.116 306.742H529.823V316.034H539.116V306.742Z" fill="#FF433E"/>
<path d="M539.123 334.626H511.239V343.918H539.123V334.626Z" fill="#FF433E"/>
<path d="M529.823 343.926H520.531V353.218H529.823V343.926Z" fill="#FF433E"/>
<path d="M520.531 353.218H492.647V362.51H520.531V353.218Z" fill="#FF433E"/>
<path d="M492.647 381.102H446.171V390.395H492.647V381.102Z" fill="#FF433E"/>
<path d="M501.939 362.51H492.647V390.395H501.939V362.51Z" fill="#FF433E"/>
<path d="M520.531 362.51H501.939V381.102H520.531V362.51Z" fill="#FF433E"/>
<path d="M529.823 353.218H520.531V362.51H529.823V353.218Z" fill="#FF433E"/>
<path d="M464.755 390.402H455.463V399.694H464.755V390.402Z" fill="#FF433E"/>
<path d="M446.163 390.402H436.871V399.694H446.163V390.402Z" fill="#FF433E"/>
<path d="M446.163 399.694H436.871V418.286H446.163V399.694Z" fill="#FF433E"/>
<path d="M436.878 418.286H399.694V427.579H436.878V418.286Z" fill="#FF433E"/>
<path d="M362.518 74.3605H325.334V83.6528H362.518V74.3605Z" fill="#FF433E"/>
<path d="M362.51 65.0683H353.218V74.3605H362.51V65.0683Z" fill="#FF433E"/>
<path d="M325.326 65.0683H316.034V74.3605H325.326V65.0683Z" fill="#FF433E"/>
<path d="M316.034 55.776H288.15V65.0683H316.034V55.776Z" fill="#FF433E"/>
<path d="M297.442 65.0683H288.15V74.3605H297.442V65.0683Z" fill="#FF433E"/>
<path d="M316.042 74.3605H297.45V83.6528H316.042V74.3605Z" fill="#FF433E"/>
<path d="M343.918 83.6603H334.626V92.9526H343.918V83.6603Z" fill="#FF433E"/>
<path d="M362.518 92.9526H343.926V102.245H362.518V92.9526Z" fill="#FF433E"/>
<path d="M353.218 102.252H343.926V111.545H353.218V102.252Z" fill="#FF433E"/>
<path d="M343.926 102.252H325.334V111.545H343.926V102.252Z" fill="#FF433E"/>
<path d="M325.326 111.545H316.034V120.837H325.326V111.545Z" fill="#FF433E"/>
<path d="M334.626 120.837H306.742V130.129H334.626V120.837Z" fill="#FF433E"/>
<path d="M316.042 130.137H297.45V139.429H316.042V130.137Z" fill="#FF433E"/>
<path d="M306.742 120.837H269.558V130.129H306.742V120.837Z" fill="#FF433E"/>
<path d="M269.565 55.776H250.973V74.368H269.565V55.776Z" fill="#FF433E"/>
<path d="M278.85 65.0683H269.558V74.3605H278.85V65.0683Z" fill="#FF433E"/>
<path d="M260.266 27.8843H250.973V46.4763H260.266V27.8843Z" fill="#FF433E"/>
<path d="M223.082 18.592L213.789 18.592V27.8843H223.082V18.592Z" fill="#FF433E"/>
<path d="M250.966 27.8843H195.197V37.1765H250.966V27.8843Z" fill="#FF433E"/>
<path d="M195.197 27.8843H185.905V37.1765H195.197V27.8843Z" fill="#FF433E"/>
<path d="M223.082 46.4763H213.789V65.0683H223.082V46.4763Z" fill="#FF433E"/>
<path d="M241.681 55.776H223.089V65.0683H241.681V55.776Z" fill="#FF433E"/>
<path d="M250.966 37.184H241.674V65.0683H250.966V37.184Z" fill="#FF433E"/>
<path d="M288.15 65.0683H278.858V74.3605H288.15V65.0683Z" fill="#FF433E"/>
<path d="M223.082 37.184H213.789V46.4763H223.082V37.184Z" fill="#FF433E"/>
<path d="M381.102 241.674H353.218V269.558H381.102V241.674Z" fill="#FF433E"/>
<path d="M408.987 223.089H381.102V232.381H408.987V223.089Z" fill="#FF433E"/>
<path d="M418.286 241.674H399.694V250.966H418.286V241.674Z" fill="#FF433E"/>
<path d="M436.878 232.381H418.286V241.674H436.878V232.381Z" fill="#FF433E"/>
<path d="M446.171 241.674H427.579V250.966H446.171V241.674Z" fill="#FF433E"/>
<path d="M418.286 232.381H371.81V241.674H418.286V232.381Z" fill="#FF433E"/>
<path d="M399.687 250.973H390.395V260.266H399.687V250.973Z" fill="#FF433E"/>
<path d="M408.987 278.858H399.694V306.742H408.987V278.858Z" fill="#FF433E"/>
<path d="M371.81 278.858H353.218V306.742H371.81V278.858Z" fill="#FF433E"/>
<path d="M334.626 241.674H325.334V250.966H334.626V241.674Z" fill="#FF433E"/>
<path d="M353.218 232.381H343.926V250.973H353.218V232.381Z" fill="#FF433E"/>
<path d="M390.395 306.742H381.102V343.926H390.395V306.742Z" fill="#FF433E"/>
<path d="M399.687 288.15H390.395V306.742H399.687V288.15Z" fill="#FF433E"/>
<path d="M408.987 334.626H399.694V353.218H408.987V334.626Z" fill="#FF433E"/>
<path d="M362.51 334.626H353.218V362.51H362.51V334.626Z" fill="#FF433E"/>
<path d="M390.395 362.51H381.102V371.803H390.395V362.51Z" fill="#FF433E"/>
<path d="M371.803 381.102H362.51V399.694H371.803V381.102Z" fill="#FF433E"/>
<path d="M539.116 343.926H529.823V371.81H539.116V343.926Z" fill="#BE1D2C"/>
<path d="M529.823 362.51H520.531V381.102H529.823V362.51Z" fill="#BE1D2C"/>
<path d="M539.116 371.81H529.823V381.102H539.116V371.81Z" fill="#BE1D2C"/>
<path d="M520.531 381.102H501.939V390.395H520.531V381.102Z" fill="#BE1D2C"/>
<path d="M501.947 390.402H464.763V399.694H501.947V390.402Z" fill="#BE1D2C"/>
<path d="M455.463 390.402H446.171V418.286H455.463V390.402Z" fill="#BE1D2C"/>
<path d="M464.755 399.694H455.463V408.987H464.755V399.694Z" fill="#A80F22"/>
<path d="M446.163 418.286H436.871V427.579H446.163V418.286Z" fill="#A80F22"/>
<path d="M436.878 427.579H399.694V446.171H436.878V427.579Z" fill="#A80F22"/>
<path d="M260.266 46.4763H250.973V55.7685H260.266V46.4763Z" fill="#BE1D2C"/>
<path d="M213.789 37.184H167.313V46.4763H213.789V37.184Z" fill="#A80F22"/>
<path d="M213.789 46.4763H204.497V65.0683H213.789V46.4763Z" fill="#A80F22"/>
<path d="M250.973 65.0683H213.789V74.3605H250.973V65.0683Z" fill="#BE1D2C"/>
<path d="M297.45 74.3605H250.973V83.6528H297.45V74.3605Z" fill="#BE1D2C"/>
<path d="M325.326 74.3605H316.034V83.6528H325.326V74.3605Z" fill="#BE1D2C"/>
<path d="M316.042 83.6603H297.45V92.9526H316.042V83.6603Z" fill="#BE1D2C"/>
<path d="M334.626 83.6603H325.334V92.9526H334.626V83.6603Z" fill="#BE1D2C"/>
<path d="M343.918 92.9526H334.626V102.245H343.918V92.9526Z" fill="#BE1D2C"/>
<path d="M325.326 102.252H316.034V111.545H325.326V102.252Z" fill="#BE1D2C"/>
<path d="M334.626 92.9526H316.034V102.245H334.626V92.9526Z" fill="#BE1D2C"/>
<path d="M316.034 111.545H269.558V120.837H316.034V111.545Z" fill="#BE1D2C"/>
<path d="M269.558 120.837H260.266V148.721H269.558V120.837Z" fill="#A80F22"/>
<path d="M353.218 223.089H325.334V232.381H353.218V223.089Z" fill="#BE1D2C"/>
<path d="M371.81 232.381H353.218V241.674H371.81V232.381Z" fill="#BE1D2C"/>
<path d="M399.694 241.674H381.102V250.966H399.694V241.674Z" fill="#BE1D2C"/>
<path d="M427.579 250.973H399.694V260.266H427.579V250.973Z" fill="#BE1D2C"/>
<path d="M390.395 250.973H381.102V269.565H390.395V250.973Z" fill="#BE1D2C"/>
<path d="M399.687 260.266H390.395V269.558H399.687V260.266Z" fill="#BE1D2C"/>
<path d="M408.987 269.565H399.694V278.858H408.987V269.565Z" fill="#BE1D2C"/>
<path d="M399.687 278.858H390.395V288.15H399.687V278.858Z" fill="#BE1D2C"/>
<path d="M390.402 288.15H371.81V306.742H390.402V288.15Z" fill="#BE1D2C"/>
<path d="M399.687 316.034H390.395V371.803H399.687V316.034Z" fill="#BE1D2C"/>
<path d="M408.987 306.742H399.694V316.034H408.987V306.742Z" fill="#BE1D2C"/>
<path d="M408.987 316.034H399.694V334.626H408.987V316.034Z" fill="#BE1D2C"/>
<path d="M418.279 316.034H408.987V325.326H418.279V316.034Z" fill="#BE1D2C"/>
<path d="M399.687 306.742H390.395V316.034H399.687V306.742Z" fill="#BE1D2C"/>
<path d="M399.694 269.565H353.218V278.858H399.694V269.565Z" fill="#BE1D2C"/>
<path d="M381.102 278.858H371.81V288.15H381.102V278.858Z" fill="#BE1D2C"/>
<path d="M390.395 278.858H381.102V288.15H390.395V278.858Z" fill="#BE1D2C"/>
<path d="M353.218 250.973H343.926V306.742H353.218V250.973Z" fill="#BE1D2C"/>
<path d="M381.102 306.742H353.218V316.034H381.102V306.742Z" fill="#BE1D2C"/>
<path d="M464.755 418.286H455.463V427.579H464.755V418.286Z" fill="#A80F22"/>
<path d="M483.347 408.987H474.055V427.579H483.347V408.987Z" fill="#A80F22"/>
<path d="M511.239 399.694H492.647V408.987H511.239V399.694Z" fill="#BE1D2C"/>
<path d="M501.939 418.286H492.647V427.579H501.939V418.286Z" fill="#BE1D2C"/>
<path d="M455.463 436.871H446.171V455.463H455.463V436.871Z" fill="#A80F22"/>
<path d="M427.579 455.463H418.286V464.755H427.579V455.463Z" fill="#A80F22"/>
<path d="M399.694 436.871H371.81V446.163H399.694V436.871Z" fill="#3D0320"/>
<path d="M371.803 464.763H316.034V474.055H371.803V464.763Z" fill="#A80F22"/>
<path d="M381.102 455.463H362.51V464.755H381.102V455.463Z" fill="#A80F22"/>
<path d="M399.694 455.463H381.102V474.055H399.694V455.463Z" fill="#A80F22"/>
<path d="M390.395 446.171H381.102V455.463H390.395V446.171Z" fill="#A80F22"/>
<path d="M408.987 455.463H399.694V464.755H408.987V455.463Z" fill="#A80F22"/>
<path d="M446.171 474.055H427.579V483.347H446.171V474.055Z" fill="#BE1D2C"/>
<path d="M446.163 455.463H436.871V464.755H446.163V455.463Z" fill="#A80F22"/>
<path d="M399.687 483.347H390.395V492.64H399.687V483.347Z" fill="#BE1D2C"/>
<path d="M418.279 474.055H408.987V483.347H418.279V474.055Z" fill="#A80F22"/>
<path d="M474.055 446.171H464.763V455.463H474.055V446.171Z" fill="#A80F22"/>
<path d="M483.347 436.871H474.055V446.163H483.347V436.871Z" fill="#A80F22"/>
<path d="M241.681 74.3605H223.089V92.9526H241.681V74.3605Z" fill="#A80F22"/>
<path d="M269.565 83.6603H250.973V92.9526H269.565V83.6603Z" fill="#BE1D2C"/>
<path d="M297.442 83.6603H288.15V102.252H297.442V83.6603Z" fill="#BE1D2C"/>
<path d="M325.326 83.6603H316.034V92.9526H325.326V83.6603Z" fill="#BE1D2C"/>
<path d="M316.034 92.9526H306.742V111.545H316.034V92.9526Z" fill="#BE1D2C"/>
<path d="M297.45 102.252H260.266V111.545H297.45V102.252Z" fill="#BE1D2C"/>
<path d="M278.85 92.9526H269.558V102.245H278.85V92.9526Z" fill="#BE1D2C"/>
<path d="M250.966 102.252H241.674V111.545H250.966V102.252Z" fill="#A80F22"/>
<path d="M260.266 120.837H241.674V139.429H260.266V120.837Z" fill="#A80F22"/>
<path d="M241.674 139.429H232.381V148.721H241.674V139.429Z" fill="#A80F22"/>
<path d="M176.605 65.0683H148.721V83.6603H176.605V65.0683Z" fill="#A80F22"/>
<path d="M195.205 55.776H176.613V65.0683H195.205V55.776Z" fill="#A80F22"/>
<path d="M176.605 46.4763H148.721V55.7685H176.605V46.4763Z" fill="#A80F22"/>
<path d="M213.789 102.252H195.197V120.844H213.789V102.252Z" fill="#A80F22"/>
<path d="M232.381 102.252H223.089V111.545H232.381V102.252Z" fill="#A80F22"/>
<path d="M223.089 139.429H204.497V158.021H223.089V139.429Z" fill="#A80F22"/>
<path d="M241.674 158.021H232.381V167.313H241.674V158.021Z" fill="#A80F22"/>
<path d="M223.089 167.313H204.497V185.905H223.089V167.313Z" fill="#A80F22"/>
<path d="M223.089 83.6603H204.497V92.9526H223.089V83.6603Z" fill="#A80F22"/>
<path d="M204.49 65.0683H195.197V83.6603H204.49V65.0683Z" fill="#A80F22"/>
<path d="M306.742 241.674H288.15V250.966H306.742V241.674Z" fill="#A80F22"/>
<path d="M334.626 232.381H325.334V241.674H334.626V232.381Z" fill="#BE1D2C"/>
<path d="M381.102 316.034H362.51V334.626H381.102V316.034Z" fill="#BE1D2C"/>
<path d="M381.102 353.218H371.81V371.81H381.102V353.218Z" fill="#BE1D2C"/>
<path d="M390.395 343.926H381.102V353.218H390.395V343.926Z" fill="#BE1D2C"/>
<path d="M18.592 250.973H9.29973V316.042H18.592V250.973Z" fill="#FF433E"/>
<path d="M27.8843 204.497H18.592V250.973L27.8843 250.973V204.497Z" fill="#FF433E"/>
<path d="M27.8843 316.034H18.592V362.51H27.8843V316.034Z" fill="#FF433E"/>
<path d="M37.1765 362.51H27.8843V381.102H37.1765V362.51Z" fill="#FF433E"/>
<path d="M46.4763 381.102H37.184V399.694H46.4763V381.102Z" fill="#FF433E"/>
<path d="M55.7685 399.694H46.4763V418.286H55.7685V399.694Z" fill="#FF433E"/>
<path d="M65.0683 418.286H55.776L55.776 436.878H65.0683L65.0683 418.286Z" fill="#FF433E"/>
<path d="M74.3605 436.871H65.0683V455.463H74.3605V436.871Z" fill="#FF433E"/>
<path d="M102.245 474.055H92.9525V483.347H102.245V474.055Z" fill="#FF433E"/>
<path d="M111.537 483.347H102.245V492.64H111.537V483.347Z" fill="#FF433E"/>
<path d="M130.137 492.647H111.545V501.939H130.137V492.647Z" fill="#FF433E"/>
<path d="M148.729 501.939H130.137V511.232H148.729V501.939Z" fill="#FF433E"/>
<path d="M167.313 511.239H148.721V520.531H167.313V511.239Z" fill="#FF433E"/>
<path d="M185.905 520.531H167.313V529.824H185.905V520.531Z" fill="#FF433E"/>
<path d="M213.789 529.824H185.905V539.116H213.789V529.824Z" fill="#FF433E"/>
<path d="M250.973 539.123H213.789V548.416H250.973V539.123Z" fill="#FF433E"/>
<path d="M353.218 539.123H316.034V548.416H353.218V539.123Z" fill="#FF433E"/>
<path d="M316.042 548.416H250.973V557.708H316.042V548.416Z" fill="#FF433E"/>
<path d="M37.1765 185.905L27.8843 185.905V204.497L37.1765 204.497V185.905Z" fill="#FF433E"/>
<path d="M37.1765 204.497L27.8843 204.497V250.973H37.1765V204.497Z" fill="#FF734D"/>
<path d="M46.4763 167.313H37.184V204.497H46.4763V167.313Z" fill="#FF734D"/>
<path d="M27.8843 250.973L18.592 250.973V316.042L27.8843 316.042V250.973Z" fill="#FF734D"/>
<path d="M37.1765 316.034H27.8843V362.51H37.1765V316.034Z" fill="#FF734D"/>
<path d="M46.4763 362.51H37.184V381.102H46.4763V362.51Z" fill="#FF734D"/>
<path d="M55.7685 381.102H46.4763V399.694H55.7685V381.102Z" fill="#FF734D"/>
<path d="M65.0683 408.987H55.776V418.279H65.0683V408.987Z" fill="#FF734D"/>
<path d="M65.0683 399.694H55.776V408.987H65.0683V399.694Z" fill="#FF734D"/>
<path d="M74.3605 418.286H65.0683L65.0683 436.878H74.3605V418.286Z" fill="#FF734D"/>
<path d="M83.6528 436.871H74.3605V446.163H83.6528V436.871Z" fill="#FF734D"/>
<path d="M111.537 474.055H102.245V483.347H111.537V474.055Z" fill="#FF734D"/>
<path d="M130.137 483.347H111.545V492.64H130.137V483.347Z" fill="#FF734D"/>
<path d="M148.729 492.647H130.137V501.939H148.729V492.647Z" fill="#FF734D"/>
<path d="M167.313 501.939H148.721V511.232H167.313V501.939Z" fill="#FF734D"/>
<path d="M185.905 511.239H167.313V520.531H185.905V511.239Z" fill="#FF734D"/>
<path d="M213.789 520.531H185.905V529.824H213.789V520.531Z" fill="#FF734D"/>
<path d="M250.973 529.824H213.789V539.116H250.973V529.824Z" fill="#FF734D"/>
<path d="M353.218 529.824H316.034V539.116H353.218V529.824Z" fill="#FF734D"/>
<path d="M381.11 529.824H343.926V539.116H381.11V529.824Z" fill="#FF734D"/>
<path d="M316.042 539.123H250.973V548.416H316.042V539.123Z" fill="#FF734D"/>
<path d="M46.4763 316.034H37.184V362.51H46.4763V316.034Z" fill="#FF433E"/>
<path d="M37.1765 250.973H27.8843V316.042H37.1765V250.973Z" fill="#FF433E"/>
<path d="M46.4763 204.497H37.184V241.681H46.4763V204.497Z" fill="#FF433E"/>
<path d="M55.7685 148.729H46.4763V204.497H55.7685V148.729Z" fill="#FF433E"/>
<path d="M55.7685 362.51H46.4763V381.102H55.7685V362.51Z" fill="#FF433E"/>
<path d="M65.0683 381.102H55.776V399.694H65.0683V381.102Z" fill="#FF433E"/>
<path d="M74.3605 399.694H65.0683V418.286H74.3605V399.694Z" fill="#FF433E"/>
<path d="M130.137 474.055H111.545V483.347H130.137V474.055Z" fill="#FF433E"/>
<path d="M148.729 483.347H130.137V492.64H148.729V483.347Z" fill="#FF433E"/>
<path d="M167.313 492.647H148.721V501.939H167.313V492.647Z" fill="#FF433E"/>
<path d="M185.905 501.939H167.313V511.232H185.905V501.939Z" fill="#FF433E"/>
<path d="M213.789 511.239H185.905V520.531H213.789V511.239Z" fill="#FF433E"/>
<path d="M250.973 520.531H213.789V529.824H250.973V520.531Z" fill="#FF433E"/>
<path d="M316.042 529.824H250.973V539.116H316.042V529.824Z" fill="#FF433E"/>
<path d="M399.687 520.531H316.034V529.824H399.687V520.531Z" fill="#FF433E"/>
<path d="M55.7685 297.45H46.4763V306.742H55.7685V297.45Z" fill="#FF433E"/>
<path d="M65.0683 278.858H55.776V288.15H65.0683V278.858Z" fill="#FF433E"/>
<path d="M74.3605 306.742H65.0683V325.334H74.3605V306.742Z" fill="#FF433E"/>
<path d="M65.0683 334.626H55.776V343.918H65.0683V334.626Z" fill="#FF433E"/>
<path d="M74.3605 362.51H65.0683V371.803H74.3605V362.51Z" fill="#FF433E"/>
<path d="M102.252 381.102H83.6603V399.694H102.252V381.102Z" fill="#FF433E"/>
<path d="M65.0683 130.137H55.776L55.776 148.729H65.0683L65.0683 130.137Z" fill="#FF433E"/>
<path d="M74.3605 111.545H65.0683L65.0683 130.137L74.3605 130.137V111.545Z" fill="#FF433E"/>
<path d="M83.6528 158.021H74.3605V167.313H83.6528V158.021Z" fill="#FF433E"/>
<path d="M74.3605 176.613H65.0683V185.905H74.3605V176.613Z" fill="#FF433E"/>
<path d="M74.368 213.789H55.776V223.082H74.368V213.789Z" fill="#FF433E"/>
<path d="M92.9525 195.197H83.6603V213.789H92.9525V195.197Z" fill="#FF433E"/>
<path d="M185.905 483.347H167.313V492.64H185.905V483.347Z" fill="#FF433E"/>
<path d="M213.789 492.647H204.497V501.939H213.789V492.647Z" fill="#FF433E"/>
<path d="M260.266 501.939H241.674V511.232H260.266V501.939Z" fill="#FF433E"/>
<path d="M306.742 501.939H278.858V511.232H306.742V501.939Z" fill="#FF433E"/>
<path d="M334.626 492.647H325.334V511.239H334.626V492.647Z" fill="#FF433E"/>
<path d="M371.81 501.939H353.218V511.232H371.81V501.939Z" fill="#FF433E"/>
<path d="M325.334 483.347H306.742V492.64H325.334V483.347Z" fill="#FF433E"/>
<path d="M288.15 520.531H269.558V529.824H288.15V520.531Z" fill="#FF433E"/>
<path d="M130.137 408.987H111.545V418.279H130.137V408.987Z" fill="#FF433E"/>
<path d="M176.605 390.402H148.721V408.994H176.605V390.402Z" fill="#FF433E"/>
<path d="M102.245 288.15H92.9525V306.742H102.245V288.15Z" fill="#FF433E"/>
<path d="M92.9525 111.545H83.6603V120.837H92.9525V111.545Z" fill="#FF433E"/>
<path d="M250.966 74.3605H241.674V102.245H250.966V74.3605Z" fill="#560000"/>
<path d="M260.266 92.9526H250.973V102.245H260.266V92.9526Z" fill="#560000"/>
<path d="M269.558 92.9526H260.266V102.245H269.558V92.9526Z" fill="#560000"/>
<path d="M260.266 102.252H250.973V120.844H260.266V102.252Z" fill="#560000"/>
<path d="M269.558 111.545H260.266V120.837H269.558V111.545Z" fill="#560000"/>
<path d="M288.15 83.6603H269.558V92.9526H288.15V83.6603Z" fill="#560000"/>
<path d="M288.15 92.9526H278.858V102.245H288.15V92.9526Z" fill="#560000"/>
<path d="M306.742 92.9526H297.45V111.545H306.742V92.9526Z" fill="#560000"/>
<path d="M213.789 65.0683H204.497V83.6603H213.789V65.0683Z" fill="#560000"/>
<path d="M223.082 74.3605H213.789V83.6528H223.082V74.3605Z" fill="#560000"/>
<path d="M204.497 46.4763H176.613V55.7685H204.497V46.4763Z" fill="#560000"/>
<path d="M204.49 55.776H195.197V65.0683H204.49V55.776Z" fill="#560000"/>
<path d="M195.205 65.0683H176.613V102.252H195.205V65.0683Z" fill="#560000"/>
<path d="M204.49 83.6603H195.197V102.252H204.49V83.6603Z" fill="#A80F22"/>
<path d="M241.681 92.9526H204.497V102.245H241.681V92.9526Z" fill="#560000"/>
<path d="M241.674 102.252H232.381V139.436H241.674V102.252Z" fill="#560000"/>
<path d="M250.966 111.545H241.674V120.837H250.966V111.545Z" fill="#560000"/>
<path d="M223.082 102.252H213.789V111.545H223.082V102.252Z" fill="#560000"/>
<path d="M232.381 111.545H213.789V139.429H232.381V111.545Z" fill="#560000"/>
<path d="M176.613 55.776H130.137V65.0683H176.613V55.776Z" fill="#560000"/>
<path d="M232.381 139.429H223.089V167.313H232.381V139.429Z" fill="#560000"/>
<path d="M241.674 148.729H232.381V158.021H241.674V148.729Z" fill="#560000"/>
<path d="M260.266 139.429H241.674V148.721H260.266V139.429Z" fill="#560000"/>
<path d="M260.266 158.021H241.674V167.313H260.266V158.021Z" fill="#560000"/>
<path d="M492.647 399.694H464.763V408.987H492.647V399.694Z" fill="#560000"/>
<path d="M492.639 408.987H483.347V427.579H492.639V408.987Z" fill="#560000"/>
<path d="M520.531 408.987H492.647V418.279H520.531V408.987Z" fill="#560000"/>
<path d="M520.531 390.402H501.939V399.694H520.531V390.402Z" fill="#560000"/>
<path d="M520.531 399.694H511.239V408.987H520.531V399.694Z" fill="#560000"/>
<path d="M529.823 381.102H520.531V399.694H529.823V381.102Z" fill="#560000"/>
<path d="M474.055 408.987H455.463V418.279H474.055V408.987Z" fill="#560000"/>
<path d="M455.463 418.286H446.171V427.579H455.463V418.286Z" fill="#560000"/>
<path d="M474.055 418.286H464.763V427.579H474.055V418.286Z" fill="#560000"/>
<path d="M455.463 427.579H436.871V436.871H455.463V427.579Z" fill="#560000"/>
<path d="M474.055 427.579H455.463V446.171H474.055V427.579Z" fill="#560000"/>
<path d="M446.163 436.871H436.871V455.463H446.163V436.871Z" fill="#560000"/>
<path d="M436.871 446.171H390.395V455.463H436.871V446.171Z" fill="#560000"/>
<path d="M418.279 455.463H408.987V474.055H418.279V455.463Z" fill="#560000"/>
<path d="M436.871 455.463H427.579V474.055H436.871V455.463Z" fill="#560000"/>
<path d="M381.102 464.763H371.81V474.055H381.102V464.763Z" fill="#560000"/>
<path d="M371.803 474.055H362.51V492.647H371.803V474.055Z" fill="#560000"/>
<path d="M399.694 474.055H371.81V483.347H399.694V474.055Z" fill="#560000"/>
<path d="M408.987 464.763H399.694V474.055H408.987V464.763Z" fill="#560000"/>
<path d="M343.926 483.347H325.334V492.64H343.926V483.347Z" fill="#560000"/>
<path d="M148.729 65.0683H111.545V83.6603H148.729V65.0683Z" fill="#560000"/>
<path d="M176.605 83.6603H148.721V111.545H176.605V83.6603Z" fill="#560000"/>
<path d="M111.537 74.3605H102.245V83.6528H111.537V74.3605Z" fill="#560000"/>
<path d="M353.218 492.647H334.626V520.531H353.218V492.647Z" fill="#560000"/>
<path d="M148.729 474.055H130.137V483.347H148.729V474.055Z" fill="#560000"/>
<path d="M167.313 483.347H148.721V492.64H167.313V483.347Z" fill="#560000"/>
<path d="M158.021 464.763H130.137V474.055H158.021V464.763Z" fill="#560000"/>
<path d="M185.905 464.763H167.313V483.355H185.905V464.763Z" fill="#560000"/>
<path d="M167.313 474.055H148.721V483.347H167.313V474.055Z" fill="#560000"/>
<path d="M185.905 492.647H167.313V501.939H185.905V492.647Z" fill="#560000"/>
<path d="M204.497 483.347H185.905V511.232H204.497V483.347Z" fill="#560000"/>
<path d="M213.789 501.939H204.497V511.232H213.789V501.939Z" fill="#560000"/>
<path d="M250.973 511.239H213.789V520.531H250.973V511.239Z" fill="#560000"/>
<path d="M269.565 520.531H250.973V529.824H269.565V520.531Z" fill="#560000"/>
<path d="M213.789 120.837H195.197V139.429H213.789V120.837Z" fill="#560000"/>
<path d="M195.197 102.252H185.905V120.844H195.197V102.252Z" fill="#560000"/>
<path d="M204.497 148.729H185.905V158.021H204.497V148.729Z" fill="#560000"/>
<path d="M223.089 158.021H204.497V167.313H223.089V158.021Z" fill="#560000"/>
<path d="M204.497 167.313H185.905V176.605H204.497V167.313Z" fill="#560000"/>
<path d="M185.905 130.137H176.613V148.729H185.905V130.137Z" fill="#560000"/>
<path d="M139.429 92.9526H130.137V111.545H139.429V92.9526Z" fill="#560000"/>
<path d="M148.721 83.6603H139.429V92.9526H148.721V83.6603Z" fill="#560000"/>
<path d="M176.605 111.545H167.313V130.137H176.605V111.545Z" fill="#560000"/>
<path d="M158.013 130.137H148.721V139.429H158.013V130.137Z" fill="#560000"/>
<path d="M102.245 83.6603H92.9525V92.9526H102.245V83.6603Z" fill="#560000"/>
<path d="M408.987 474.055H399.694V492.647H408.987V474.055Z" fill="#560000"/>
<path d="M427.579 464.763H418.286V483.355H427.579V464.763Z" fill="#560000"/>
<path d="M427.579 483.347H408.987V501.939H427.579V483.347Z" fill="#560000"/>
<path d="M446.163 492.647H436.871V501.939H446.163V492.647Z" fill="#560000"/>
<path d="M455.463 464.763H436.871V474.055H455.463V464.763Z" fill="#A80F22"/>
<path d="M455.463 455.463H446.171V464.755H455.463V455.463Z" fill="#560000"/>
<path d="M464.755 446.171H455.463V455.463H464.755V446.171Z" fill="#560000"/>
<path d="M501.939 427.579H474.055V436.871H501.939V427.579Z" fill="#560000"/>
<path d="M492.639 436.871H483.347V446.163H492.639V436.871Z" fill="#560000"/>
<path d="M511.231 418.286H501.939V446.171H511.231V418.286Z" fill="#560000"/>
<path d="M316.034 520.531H288.15V529.824H316.034V520.531Z" fill="#560000"/>
<path d="M297.442 511.239H269.558V520.531H297.442V511.239Z" fill="#560000"/>
<path d="M288.15 492.647H232.381V501.939H288.15V492.647Z" fill="#560000"/>
<path d="M269.558 501.939H260.266V511.232H269.558V501.939Z" fill="#560000"/>
<path d="M232.381 501.939H213.789V511.232H232.381V501.939Z" fill="#560000"/>
<path d="M316.034 492.647H306.742V501.939H316.034V492.647Z" fill="#560000"/>
<path d="M325.326 501.939H316.034V520.531H325.326V501.939Z" fill="#560000"/>
<path d="M316.034 511.239H306.742V520.531H316.034V511.239Z" fill="#560000"/>
<path d="M381.102 492.647H353.218V501.939H381.102V492.647Z" fill="#560000"/>
<path d="M390.402 511.239H371.81V520.531H390.402V511.239Z" fill="#560000"/>
<path d="M390.395 492.647H381.102V501.939H390.395V492.647Z" fill="#560000"/>
<path d="M408.987 492.647H399.694V511.239H408.987V492.647Z" fill="#560000"/>
<path d="M399.687 501.939H390.395V520.531H399.687V501.939Z" fill="#560000"/>
<path d="M195.197 130.137H185.905V148.729H195.197V130.137Z" fill="#560000"/>
<path d="M185.905 111.545H176.613V130.137H185.905V111.545Z" fill="#560000"/>
<path d="M195.197 120.837H185.905V130.129H195.197V120.837Z" fill="#560000"/>
<path d="M185.905 102.252H176.613V111.545H185.905V102.252Z" fill="#560000"/>
<path d="M204.49 139.429H195.197V148.721H204.49V139.429Z" fill="#560000"/>
<path d="M204.497 158.021H185.905V167.313H204.497V158.021Z" fill="#560000"/>
<path d="M176.613 176.613H158.021V185.905H176.613V176.613Z" fill="#560000"/>
<path d="M167.313 158.021H158.021V167.313H167.313V158.021Z" fill="#560000"/>
<path d="M176.613 139.429H158.021V148.721H176.613V139.429Z" fill="#560000"/>
<path d="M185.905 158.021H176.613V167.313H185.905V158.021Z" fill="#560000"/>
<path d="M148.721 111.545H139.429V130.137H148.721V111.545Z" fill="#560000"/>
<path d="M130.129 139.429H120.837V148.721H130.129V139.429Z" fill="#560000"/>
<path d="M158.021 158.021H139.429V176.613H158.021V158.021Z" fill="#560000"/>
<path d="M260.266 232.381H241.674V250.973H260.266V232.381Z" fill="#560000"/>
<path d="M288.15 260.266H269.558V278.858H288.15V260.266Z" fill="#560000"/>
<path d="M278.85 241.674H269.558V250.966H278.85V241.674Z" fill="#560000"/>
<path d="M325.334 232.381H306.742V260.266H325.334V232.381Z" fill="#560000"/>
<path d="M343.918 232.381H334.626V316.034H343.918V232.381Z" fill="#560000"/>
<path d="M353.218 306.742H343.926V362.51H353.218V306.742Z" fill="#560000"/>
<path d="M362.51 316.034H353.218V334.626H362.51V316.034Z" fill="#560000"/>
<path d="M381.102 334.626H362.51V353.218H381.102V334.626Z" fill="#560000"/>
<path d="M390.395 353.218H381.102V362.51H390.395V353.218Z" fill="#560000"/>
<path d="M371.803 353.218H362.51V381.102H371.803V353.218Z" fill="#560000"/>
<path d="M353.218 362.51H343.926V390.395H353.218V362.51Z" fill="#560000"/>
<path d="M223.089 232.381H204.497V250.973H223.089V232.381Z" fill="#560000"/>
<path d="M241.674 241.674H232.381V260.266H241.674V241.674Z" fill="#560000"/>
<path d="M269.565 269.565H250.973V288.157H269.565V269.565Z" fill="#560000"/>
<path d="M269.558 241.674H260.266V250.966H269.558V241.674Z" fill="#560000"/>
<path d="M306.742 269.565H297.45V288.157H306.742V269.565Z" fill="#560000"/>
<path d="M306.742 250.973H288.15V260.266H306.742V250.973Z" fill="#560000"/>
<path d="M325.326 269.565H316.034V278.858H325.326V269.565Z" fill="#560000"/>
<path d="M334.626 260.266H325.334V278.858H334.626V260.266Z" fill="#560000"/>
<path d="M334.626 297.45H316.034V316.042H334.626V297.45Z" fill="#560000"/>
<path d="M306.742 297.45H297.45V325.334H306.742V297.45Z" fill="#560000"/>
<path d="M288.15 288.15H278.858V306.742H288.15V288.15Z" fill="#560000"/>
<path d="M343.926 316.034H325.334V334.626H343.926V316.034Z" fill="#560000"/>
<path d="M325.326 343.926H316.034V362.518H325.326V343.926Z" fill="#560000"/>
<path d="M306.742 334.626H288.15V353.218H306.742V334.626Z" fill="#560000"/>
<path d="M325.326 316.034H316.034V343.918H325.326V316.034Z" fill="#560000"/>
<path d="M325.334 288.15H306.742V297.442H325.334V288.15Z" fill="#560000"/>
<path d="M306.742 260.266H297.45V269.558H306.742V260.266Z" fill="#560000"/>
<path d="M316.034 260.266H306.742V269.558H316.034V260.266Z" fill="#560000"/>
<path d="M334.626 250.973H325.334V260.266H334.626V250.973Z" fill="#560000"/>
<path d="M297.442 260.266H288.15V278.858H297.442V260.266Z" fill="#560000"/>
<path d="M269.565 250.973H250.973V260.266H269.565V250.973Z" fill="#560000"/>
<path d="M297.442 288.15H288.15V306.742H297.442V288.15Z" fill="#560000"/>
<path d="M325.334 371.81H306.742V381.102H325.334V371.81Z" fill="#560000"/>
<path d="M343.918 371.81H334.626V381.102H343.918V371.81Z" fill="#560000"/>
<path d="M325.334 390.402H306.742V399.694H325.334V390.402Z" fill="#560000"/>
<path d="M297.45 371.81H278.858V390.402H297.45V371.81Z" fill="#560000"/>
<path d="M278.85 353.218H269.558V362.51H278.85V353.218Z" fill="#560000"/>
<path d="M288.15 325.334H269.558V343.926H288.15V325.334Z" fill="#560000"/>
<path d="M269.558 297.45H260.266V316.042H269.558V297.45Z" fill="#560000"/>
<path d="M269.558 399.694H260.266V408.987H269.558V399.694Z" fill="#560000"/>
<path d="M260.266 408.987H250.973V427.579H260.266V408.987Z" fill="#560000"/>
<path d="M297.45 399.694H278.858V408.987H297.45V399.694Z" fill="#560000"/>
<path d="M250.973 316.034H232.381V353.218H250.973V316.034Z" fill="#560000"/>
<path d="M213.789 278.858H195.197V306.742H213.789V278.858Z" fill="#560000"/>
<path d="M213.789 325.334H185.905V353.218H213.789V325.334Z" fill="#560000"/>
<path d="M241.681 381.102H223.089V408.987H241.681V381.102Z" fill="#560000"/>
<path d="M213.789 381.102H204.497V390.395H213.789V381.102Z" fill="#560000"/>
<path d="M204.49 408.987H195.197V436.871H204.49V408.987Z" fill="#560000"/>
<path d="M176.613 418.286H158.021V436.878H176.613V418.286Z" fill="#560000"/>
<path d="M204.497 371.81H176.613V390.402H204.497V371.81Z" fill="#560000"/>
<path d="M158.013 269.565H148.721V288.157H158.013V269.565Z" fill="#560000"/>
<path d="M195.197 250.973H185.905V269.565H195.197V250.973Z" fill="#560000"/>
<path d="M232.381 260.266H213.789V278.858H232.381V260.266Z" fill="#560000"/>
<path d="M250.966 269.565H241.674V288.157H250.966V269.565Z" fill="#560000"/>
<path d="M260.266 297.45H241.674V316.042H260.266V297.45Z" fill="#560000"/>
<path d="M297.45 306.742H278.858V325.334H297.45V306.742Z" fill="#560000"/>
<path d="M343.926 353.218H325.334V371.81H343.926V353.218Z" fill="#560000"/>
<path d="M139.429 83.6603H102.245V92.9526H139.429V83.6603Z" fill="#A80F22"/>
<path d="M148.721 92.9526H139.429V111.545H148.721V92.9526Z" fill="#A80F22"/>
<path d="M167.313 111.545H148.721V130.137H167.313V111.545Z" fill="#A80F22"/>
<path d="M455.463 474.055H446.171V501.939H455.463V474.055Z" fill="#A80F22"/>
<path d="M474.055 455.463H455.463V483.347H474.055V455.463Z" fill="#A80F22"/>
<path d="M464.755 483.347H455.463V492.64H464.755V483.347Z" fill="#BE1D2C"/>
<path d="M446.171 483.347H427.579V492.64H446.171V483.347Z" fill="#A80F22"/>
<path d="M436.871 501.939H408.987V511.232H436.871V501.939Z" fill="#A80F22"/>
<path d="M436.871 492.647H427.579V501.939H436.871V492.647Z" fill="#BE1D2C"/>
<path d="M390.402 483.347H371.81V492.64H390.402V483.347Z" fill="#A80F22"/>
<path d="M399.687 492.647H390.395V501.939H399.687V492.647Z" fill="#BE1D2C"/>
<path d="M390.402 501.939H371.81V511.232H390.402V501.939Z" fill="#BE1D2C"/>
<path d="M408.987 511.239H399.694V520.531H408.987V511.239Z" fill="#BE1D2C"/>
<path d="M418.279 511.239H408.987V520.531H418.279V511.239Z" fill="#BE1D2C"/>
<path d="M325.326 492.647H316.034V501.939H325.326V492.647Z" fill="#BE1D2C"/>
<path d="M316.034 501.939H306.742V511.232H316.034V501.939Z" fill="#A80F22"/>
<path d="M343.926 474.055H297.45V483.347H343.926V474.055Z" fill="#A80F22"/>
<path d="M306.742 483.347H297.45V501.939H306.742V483.347Z" fill="#A80F22"/>
<path d="M297.442 492.647H288.15V501.939H297.442V492.647Z" fill="#BE1D2C"/>
<path d="M278.85 501.939H269.558V511.232H278.85V501.939Z" fill="#BE1D2C"/>
<path d="M306.742 511.239H297.45V520.531H306.742V511.239Z" fill="#BE1D2C"/>
<path d="M269.565 511.239H250.973V520.531H269.565V511.239Z" fill="#BE1D2C"/>
<path d="M334.626 511.239H325.334V520.531H334.626V511.239Z" fill="#A80F22"/>
<path d="M371.81 511.239H353.218V520.531H371.81V511.239Z" fill="#BE1D2C"/>
<path d="M241.674 501.939H232.381V511.232H241.674V501.939Z" fill="#BE1D2C"/>
<path d="M232.381 492.647H213.789V501.939H232.381V492.647Z" fill="#BE1D2C"/>
<path d="M111.545 464.763H83.6603L83.6603 474.055H111.545V464.763Z" fill="#BE1D2C"/>
<path d="M483.347 446.171H474.055V474.055H483.347V446.171Z" fill="#A80F22"/>
<path d="M492.639 446.171H483.347V464.763H492.639V446.171Z" fill="#BE1D2C"/>
<path d="M501.939 436.871H492.647V455.463H501.939V436.871Z" fill="#A80F22"/>
<path d="M316.034 269.565H306.742V288.157H316.034V269.565Z" fill="#A80F22"/>
<path d="M325.326 260.266H316.034V269.558H325.326V260.266Z" fill="#A80F22"/>
<path d="M334.626 278.858H316.034V288.15H334.626V278.858Z" fill="#BE1D2C"/>
<path d="M334.626 288.15H325.334V297.442H334.626V288.15Z" fill="#A80F22"/>
<path d="M288.15 241.674H278.858V260.266H288.15V241.674Z" fill="#A80F22"/>
<path d="M278.85 250.973H269.558V260.266H278.85V250.973Z" fill="#A80F22"/>
<path d="M250.966 250.973H241.674V260.266H250.966V250.973Z" fill="#A80F22"/>
<path d="M269.565 260.266H232.381V269.558H269.565V260.266Z" fill="#A80F22"/>
<path d="M306.742 278.858H269.558V288.15H306.742V278.858Z" fill="#A80F22"/>
<path d="M306.742 288.15H297.45V297.442H306.742V288.15Z" fill="#A80F22"/>
<path d="M316.034 297.45H306.742V362.518H316.034V297.45Z" fill="#A80F22"/>
<path d="M334.626 334.626H325.334V343.918H334.626V334.626Z" fill="#BE1D2C"/>
<path d="M343.918 334.626H334.626V343.918H343.918V334.626Z" fill="#A80F22"/>
<path d="M343.926 343.926H325.334V353.218H343.926V343.926Z" fill="#A80F22"/>
<path d="M306.742 325.334H288.15V334.626H306.742V325.334Z" fill="#A80F22"/>
<path d="M362.51 362.51H353.218V399.694H362.51V362.51Z" fill="#A80F22"/>
<path d="M343.918 381.102H334.626V390.395H343.918V381.102Z" fill="#A80F22"/>
<path d="M353.218 390.402H343.926V399.694H353.218V390.402Z" fill="#A80F22"/>
<path d="M334.626 371.81H325.334V390.402H334.626V371.81Z" fill="#A80F22"/>
<path d="M325.334 381.102H297.45V390.395H325.334V381.102Z" fill="#A80F22"/>
<path d="M325.334 362.51H306.742V371.803H325.334V362.51Z" fill="#A80F22"/>
<path d="M306.742 353.218H288.15V371.81H306.742V353.218Z" fill="#A80F22"/>
<path d="M306.742 371.81H297.45V381.102H306.742V371.81Z" fill="#BE1D2C"/>
<path d="M241.674 288.15H213.789V316.034H241.674V288.15Z" fill="#A80F22"/>
<path d="M241.674 269.565H232.381V288.157H241.674V269.565Z" fill="#A80F22"/>
<path d="M232.381 278.858H213.789V288.15H232.381V278.858Z" fill="#A80F22"/>
<path d="M232.381 241.674H223.089V260.266H232.381V241.674Z" fill="#A80F22"/>
<path d="M185.905 148.729H139.429V158.021H185.905V148.729Z" fill="#A80F22"/>
<path d="M176.613 130.137H158.021V139.429H176.613V130.137Z" fill="#A80F22"/>
<path d="M158.013 139.429H148.721V148.721H158.013V139.429Z" fill="#A80F22"/>
<path d="M130.129 92.9526H120.837V120.837H130.129V92.9526Z" fill="#A80F22"/>
<path d="M139.429 111.545H130.137V130.137H139.429V111.545Z" fill="#A80F22"/>
<path d="M148.721 130.137H139.429V139.429H148.721V130.137Z" fill="#A80F22"/>
<path d="M176.605 158.021H167.313V176.613H176.605V158.021Z" fill="#A80F22"/>
<path d="M176.613 167.313H158.021V176.605H176.613V167.313Z" fill="#A80F22"/>
<path d="M185.905 167.313H176.613V176.605H185.905V167.313Z" fill="#A80F22"/>
<path d="M158.021 176.613H139.429V185.905H158.021V176.613Z" fill="#A80F22"/>
<path d="M148.729 185.905H130.137V195.197H148.729V185.905Z" fill="#BE1D2C"/>
<path d="M195.197 297.45H167.313V334.634H195.197V297.45Z" fill="#A80F22"/>
<path d="M204.49 306.742H195.197V325.334H204.49V306.742Z" fill="#A80F22"/>
<path d="M213.789 306.742H204.497V325.334H213.789V306.742Z" fill="#A80F22"/>
<path d="M232.381 316.034H213.789V353.218H232.381V316.034Z" fill="#A80F22"/>
<path d="M278.858 288.15H241.674V297.442H278.858V288.15Z" fill="#A80F22"/>
<path d="M278.85 297.45H269.558V325.334H278.85V297.45Z" fill="#A80F22"/>
<path d="M269.565 316.034H250.973V362.51H269.565V316.034Z" fill="#A80F22"/>
<path d="M288.15 343.926H269.558V353.218H288.15V343.926Z" fill="#A80F22"/>
<path d="M288.15 353.218H278.858V371.81H288.15V353.218Z" fill="#A80F22"/>
<path d="M278.85 362.51H269.558V371.803H278.85V362.51Z" fill="#A80F22"/>
<path d="M241.674 353.218H232.381V362.51H241.674V353.218Z" fill="#BE1D2C"/>
<path d="M250.966 353.218H241.674V362.51H250.966V353.218Z" fill="#BE1D2C"/>
<path d="M213.789 353.218H185.905V362.51H213.789V353.218Z" fill="#A80F22"/>
<path d="M260.266 381.102H241.674V408.987H260.266V381.102Z" fill="#A80F22"/>
<path d="M269.565 362.51H204.497V381.102H269.565V362.51Z" fill="#A80F22"/>
<path d="M232.381 353.218H213.789V362.51H232.381V353.218Z" fill="#A80F22"/>
<path d="M278.858 381.102H260.266V399.694H278.858V381.102Z" fill="#A80F22"/>
<path d="M278.85 371.81H269.558V381.102H278.85V371.81Z" fill="#A80F22"/>
<path d="M306.742 390.402H278.858V399.694H306.742V390.402Z" fill="#A80F22"/>
<path d="M278.85 399.694H269.558V408.987H278.85V399.694Z" fill="#A80F22"/>
<path d="M250.973 408.987H204.497V427.579H250.973V408.987Z" fill="#A80F22"/>
<path d="M223.082 381.102H213.789V408.987H223.082V381.102Z" fill="#A80F22"/>
<path d="M213.797 390.402H176.613V408.994H213.797V390.402Z" fill="#A80F22"/>
<path d="M120.844 92.9526H83.6603L83.6603 102.245H120.844V92.9526Z" fill="#BE1D2C"/>
<path d="M120.837 102.252H102.245V130.137H120.837V102.252Z" fill="#BE1D2C"/>
<path d="M83.6528 102.252H74.3605V111.545H83.6528V102.252Z" fill="#BE1D2C"/>
<path d="M102.245 102.252H92.9525V111.545H102.245V102.252Z" fill="#BE1D2C"/>
<path d="M130.129 120.837H120.837V139.429H130.129V120.837Z" fill="#BE1D2C"/>
<path d="M139.429 130.137H130.137V158.021H139.429V130.137Z" fill="#BE1D2C"/>
<path d="M148.721 139.429H139.429V148.721H148.721V139.429Z" fill="#BE1D2C"/>
<path d="M139.429 158.021H130.137V185.905H139.429V158.021Z" fill="#BE1D2C"/>
<path d="M130.129 185.905H102.245V195.197H130.129V185.905Z" fill="#BE1D2C"/>
<path d="M130.129 148.729H120.837V158.021H130.129V148.729Z" fill="#BE1D2C"/>
<path d="M120.837 139.429H111.545V148.721H120.837V139.429Z" fill="#BE1D2C"/>
<path d="M120.837 158.021H111.545V176.613H120.837V158.021Z" fill="#BE1D2C"/>
<path d="M130.129 167.313H120.837V185.905H130.129V167.313Z" fill="#BE1D2C"/>
<path d="M102.245 158.021H92.9525V176.613H102.245V158.021Z" fill="#BE1D2C"/>
<path d="M102.245 130.137H92.9525V148.729H102.245V130.137Z" fill="#BE1D2C"/>
<path d="M92.9525 130.137H83.6603V148.729H92.9525V130.137Z" fill="#BE1D2C"/>
<path d="M92.9525 185.905H74.3605V195.197H92.9525V185.905Z" fill="#BE1D2C"/>
<path d="M83.6528 176.613H74.3605V185.905H83.6528V176.613Z" fill="#BE1D2C"/>
<path d="M185.905 334.626H167.313V362.51H185.905V334.626Z" fill="#BE1D2C"/>
<path d="M204.497 362.51H176.613V371.803H204.497V362.51Z" fill="#BE1D2C"/>
<path d="M176.613 362.51H158.021V390.395H176.613V362.51Z" fill="#BE1D2C"/>
<path d="M158.013 371.81H148.721V390.402H158.013V371.81Z" fill="#BE1D2C"/>
<path d="M223.082 250.973H195.197V260.266H223.082V250.973Z" fill="#BE1D2C"/>
<path d="M213.789 260.266H195.197V278.858H213.789V260.266Z" fill="#BE1D2C"/>
<path d="M204.497 232.381H167.313V250.973H204.497V232.381Z" fill="#BE1D2C"/>
<path d="M185.905 250.973H158.021V269.565H185.905V250.973Z" fill="#BE1D2C"/>
<path d="M195.205 269.565H158.021V297.45H195.205V269.565Z" fill="#BE1D2C"/>
<path d="M195.197 408.987H139.429V418.279H195.197V408.987Z" fill="#BE1D2C"/>
<path d="M195.205 418.286H176.613V436.878H195.205V418.286Z" fill="#BE1D2C"/>
<path d="M158.021 436.871H139.429V446.163H158.021V436.871Z" fill="#BE1D2C"/>
<path d="M158.021 418.286H111.545V436.878H158.021V418.286Z" fill="#BE1D2C"/>
<path d="M120.837 381.102H102.245V399.694H120.837V381.102Z" fill="#BE1D2C"/>
<path d="M148.721 381.102H120.837V408.987H148.721V381.102Z" fill="#BE1D2C"/>
<path d="M139.429 408.987H130.137V418.279H139.429V408.987Z" fill="#BE1D2C"/>
<path d="M130.137 371.81H111.545V381.102H130.137V371.81Z" fill="#BE1D2C"/>
<path d="M158.021 288.15H139.429V306.742H158.021V288.15Z" fill="#BE1D2C"/>
<path d="M148.721 269.565H139.429V288.157H148.721V269.565Z" fill="#BE1D2C"/>
<path d="M158.013 260.266H148.721V269.558H158.013V260.266Z" fill="#BE1D2C"/>
<path d="M167.313 316.034H158.021V334.626H167.313V316.034Z" fill="#BE1D2C"/>
<path d="M130.137 269.565H111.545V278.858H130.137V269.565Z" fill="#BE1D2C"/>
<path d="M148.729 250.973H130.137V269.565H148.729V250.973Z" fill="#BE1D2C"/>
<path d="M120.837 260.266H102.245V269.558H120.837V260.266Z" fill="#BE1D2C"/>
<path d="M92.9525 269.565H83.6603V278.858H92.9525V269.565Z" fill="#BE1D2C"/>
<path d="M130.129 288.15H102.245V297.442H130.129V288.15Z" fill="#BE1D2C"/>
<path d="M92.9525 297.45H74.3605V306.742H92.9525V297.45Z" fill="#BE1D2C"/>
<path d="M102.245 306.742H92.9525V325.334H102.245V306.742Z" fill="#BE1D2C"/>
<path d="M130.137 297.45H111.545V306.742H130.137V297.45Z" fill="#BE1D2C"/>
<path d="M139.429 316.034H111.545V343.918H139.429V316.034Z" fill="#330101"/>
<path d="M139.429 353.218H120.837V362.51H139.429V353.218Z" fill="#560000"/>
<path d="M158.021 343.926H139.429V362.518H158.021V343.926Z" fill="#330101"/>
<path d="M167.313 306.742H139.429V316.034H167.313V306.742Z" fill="#560000"/>
<path d="M167.313 297.45H158.021V306.742H167.313V297.45Z" fill="#560000"/>
<path d="M158.013 316.034H148.721V325.326H158.013V316.034Z" fill="#560000"/>
<path d="M148.721 325.334H139.429V343.926H148.721V325.334Z" fill="#330101"/>
<path d="M167.313 334.626H158.021V343.918H167.313V334.626Z" fill="#560000"/>
<path d="M139.429 343.926H102.245V353.218H139.429V343.926Z" fill="#560000"/>
<path d="M120.837 353.218H111.545V362.51H120.837V353.218Z" fill="#560000"/>
<path d="M148.729 362.51H130.137V371.803H148.729V362.51Z" fill="#560000"/>
<path d="M111.537 325.334H102.245V334.626H111.537V325.334Z" fill="#560000"/>
<path d="M111.537 297.45H102.245V316.042H111.537V297.45Z" fill="#560000"/>
<path d="M83.6603 250.973H55.776V278.858H83.6603V250.973Z" fill="#560000"/>
<path d="M102.245 260.266H92.9525V269.558H102.245V260.266Z" fill="#560000"/>
<path d="M92.9525 260.266H83.6603V269.558H92.9525V260.266Z" fill="#560000"/>
<path d="M111.545 269.565H92.9525V278.858H111.545V269.565Z" fill="#560000"/>
<path d="M139.429 278.858H92.9525V288.15H139.429V278.858Z" fill="#560000"/>
<path d="M139.429 269.565H130.137V306.749H139.429V269.565Z" fill="#560000"/>
<path d="M55.7685 260.266H46.4763V278.858H55.7685V260.266Z" fill="#560000"/>
<path d="M102.252 148.729H83.6603V158.021H102.252V148.729Z" fill="#560000"/>
<path d="M120.837 130.137H102.245V139.429H120.837V130.137Z" fill="#560000"/>
<path d="M102.245 111.545H92.9525V139.429H102.245V111.545Z" fill="#560000"/>
<path d="M92.9525 102.252H83.6603V111.545H92.9525V102.252Z" fill="#560000"/>
<path d="M83.6528 111.545H74.3605V139.429H83.6528V111.545Z" fill="#560000"/>
<path d="M92.9525 120.837H83.6603V130.129H92.9525V120.837Z" fill="#560000"/>
<path d="M111.537 139.429H102.245V185.905H111.537V139.429Z" fill="#560000"/>
<path d="M120.837 148.729H111.545V158.021H120.837V148.729Z" fill="#560000"/>
<path d="M130.129 158.021H120.837V167.313H130.129V158.021Z" fill="#560000"/>
<path d="M120.837 176.613H111.545V185.905H120.837V176.613Z" fill="#560000"/>
<path d="M120.837 195.197H92.9525V213.789H120.837V195.197Z" fill="#560000"/>
<path d="M102.245 176.613H92.9525V195.205H102.245V176.613Z" fill="#560000"/>
<path d="M92.9525 158.021H83.6603V185.905H92.9525V158.021Z" fill="#560000"/>
<path d="M74.3605 130.137L65.0683 130.137L65.0683 139.429H74.3605V130.137Z" fill="#A80F22"/>
<path d="M83.6603 139.429H65.0683V158.021H83.6603V139.429Z" fill="#A80F22"/>
<path d="M65.0683 148.729H55.776V158.021H65.0683V148.729Z" fill="#A80F22"/>
<path d="M74.368 158.021H55.776V176.613H74.368V158.021Z" fill="#A80F22"/>
<path d="M83.6528 167.313H74.3605V176.605H83.6528V167.313Z" fill="#A80F22"/>
<path d="M65.0683 176.613H55.776V213.797H65.0683V176.613Z" fill="#A80F22"/>
<path d="M74.3605 185.905H65.0683V213.789H74.3605V185.905Z" fill="#A80F22"/>
<path d="M83.6528 195.197H74.3605V223.082H83.6528V195.197Z" fill="#A80F22"/>
<path d="M120.844 213.789H83.6603V223.082H120.844V213.789Z" fill="#A80F22"/>
<path d="M92.9525 223.089H46.4763V232.381H92.9525V223.089Z" fill="#A80F22"/>
<path d="M55.7685 204.497H46.4763V223.089H55.7685V204.497Z" fill="#A80F22"/>
<path d="M74.3605 232.381H46.4763V241.674H74.3605V232.381Z" fill="#A80F22"/>
<path d="M74.368 241.674H55.776V250.966H74.368V241.674Z" fill="#A80F22"/>
<path d="M46.4763 260.266H37.184V278.858H46.4763V260.266Z" fill="#A80F22"/>
<path d="M55.776 278.858H37.184V297.45H55.776V278.858Z" fill="#A80F22"/>
<path d="M92.9525 278.858H65.0683V297.45H92.9525V278.858Z" fill="#A80F22"/>
<path d="M65.0683 288.15H55.776V306.742H65.0683V288.15Z" fill="#A80F22"/>
<path d="M74.3605 297.45H65.0683V306.742H74.3605V297.45Z" fill="#A80F22"/>
<path d="M46.4763 297.45H37.184V316.042H46.4763V297.45Z" fill="#A80F22"/>
<path d="M65.0683 306.742H55.776V334.626H65.0683V306.742Z" fill="#A80F22"/>
<path d="M55.7685 306.742H46.4763V362.51H55.7685V306.742Z" fill="#A80F22"/>
<path d="M278.858 483.347H260.266V492.64H278.858V483.347Z" fill="#A80F22"/>
<path d="M92.9525 306.742H74.3605V343.926H92.9525V306.742Z" fill="#A80F22"/>
<path d="M74.3605 325.334H65.0683V362.518H74.3605V325.334Z" fill="#A80F22"/>
<path d="M65.0683 343.926H55.776V381.11H65.0683V343.926Z" fill="#A80F22"/>
<path d="M92.9525 343.926H74.3605V381.11H92.9525V343.926Z" fill="#A80F22"/>
<path d="M111.545 362.51H92.9525V381.102H111.545V362.51Z" fill="#A80F22"/>
<path d="M102.245 334.626H92.9525V343.918H102.245V334.626Z" fill="#A80F22"/>
<path d="M74.3605 371.81H65.0683V399.694H74.3605V371.81Z" fill="#A80F22"/>
<path d="M111.545 418.286H83.6603V427.579H111.545V418.286Z" fill="#A80F22"/>
<path d="M102.245 427.579H74.3605V436.871H102.245V427.579Z" fill="#A80F22"/>
<path d="M111.545 436.871H83.6603V446.163H111.545V436.871Z" fill="#A80F22"/>
<path d="M111.545 399.694H83.6603V418.286H111.545V399.694Z" fill="#A80F22"/>
<path d="M83.6528 381.102H74.3605V408.987H83.6528V381.102Z" fill="#A80F22"/>
<path d="M120.837 399.694H111.545V408.987H120.837V399.694Z" fill="#A80F22"/>
<path d="M176.605 223.089H92.9525V232.381H176.605V223.089Z" fill="#EF8229"/>
<path d="M111.545 232.381H92.9525V250.973H111.545V232.381Z" fill="#EF8229"/>
<path d="M130.137 241.674H111.545V260.266H130.137V241.674Z" fill="#EF8229"/>
<path d="M111.537 250.973H102.245V260.266H111.537V250.973Z" fill="#EF8229"/>
<path d="M130.129 260.266H120.837V269.558H130.129V260.266Z" fill="#EF8229"/>
<path d="M139.429 241.674H130.137V250.966H139.429V241.674Z" fill="#EF8229"/>
<path d="M148.721 232.381H139.429V250.973H148.721V232.381Z" fill="#EF8229"/>
<path d="M139.429 213.789H120.837V223.082H139.429V213.789Z" fill="#EF8229"/>
<path d="M158.021 204.497H139.429V223.089H158.021V204.497Z" fill="#EF8229"/>
<path d="M148.721 195.197H139.429V204.49H148.721V195.197Z" fill="#EF8229"/>
<path d="M176.605 185.905H167.313V204.497H176.605V185.905Z" fill="#EF8229"/>
<path d="M185.905 195.197H176.613V213.789H185.905V195.197Z" fill="#EF8229"/>
<path d="M241.674 195.197H185.905V204.49H241.674V195.197Z" fill="#EF8229"/>
<path d="M223.082 204.497H195.197V213.789H223.082V204.497Z" fill="#EF8229"/>
<path d="M223.082 213.789H213.789V232.381H223.082V213.789Z" fill="#EF8229"/>
<path d="M250.973 185.905H213.789V195.197H250.973V185.905Z" fill="#EF8229"/>
<path d="M232.381 167.313H223.089V185.905H232.381V167.313Z" fill="#EF8229"/>
<path d="M65.0683 223.089H55.776V241.681H65.0683V223.089Z" fill="#EF8229"/>
<path d="M55.7685 269.565H27.8843V278.858H55.7685V269.565Z" fill="#EF8229"/>
<path d="M83.6528 260.266H74.3605V269.558H83.6528V260.266Z" fill="#EF8229"/>
<path d="M306.742 176.613H232.381V185.905H306.742V176.613Z" fill="#EF8229"/>
<path d="M288.15 167.313H260.266V176.605H288.15V167.313Z" fill="#EF8229"/>
<path d="M288.15 158.021H278.858V167.313H288.15V158.021Z" fill="#EF8229"/>
<path d="M316.034 167.313H288.15V176.605H316.034V167.313Z" fill="#EF8229"/>
<path d="M269.558 185.905H260.266V213.789H269.558V185.905Z" fill="#EF8229"/>
<path d="M260.266 195.197H250.973V213.789H260.266V195.197Z" fill="#EF8229"/>
<path d="M241.674 204.497H232.381V241.681H241.674V204.497Z" fill="#EF8229"/>
<path d="M232.381 213.789H223.089V223.082H232.381V213.789Z" fill="#EF8229"/>
<path d="M250.966 213.789H241.674V232.381H250.966V213.789Z" fill="#EF8229"/>
<path d="M269.565 223.089H250.973V232.381H269.565V223.089Z" fill="#EF8229"/>
<path d="M269.558 232.381H260.266V241.674H269.558V232.381Z" fill="#EF8229"/>
<path d="M306.742 232.381H288.15V241.674H306.742V232.381Z" fill="#EF8229"/>
<path d="M278.85 204.497H269.558V232.381H278.85V204.497Z" fill="#EF8229"/>
<path d="M288.15 204.497H278.858V232.381H288.15V204.497Z" fill="#EF8229"/>
<path d="M306.742 213.789H288.15V232.381H306.742V213.789Z" fill="#EF8229"/>
<path d="M353.218 213.789H306.742V223.082H353.218V213.789Z" fill="#EF8229"/>
<path d="M316.034 158.021H306.742V167.313H316.034V158.021Z" fill="#EF8229"/>
<path d="M455.463 102.252H427.579V130.137H455.463V102.252Z" fill="#FFAB15"/>
<path d="M446.163 92.9526H436.871V102.245H446.163V92.9526Z" fill="#FFAB15"/>
<path d="M408.987 92.9526H399.694V102.245H408.987V92.9526Z" fill="#FFAB15"/>
<path d="M427.579 92.9526H408.987V111.545H427.579V92.9526Z" fill="#FFAB15"/>
<path d="M474.055 130.137H446.171V148.729H474.055V130.137Z" fill="#FFAB15"/>
<path d="M427.579 120.837H390.395V148.721H427.579V120.837Z" fill="#FFAB15"/>
<path d="M436.871 130.137H427.579V158.021H436.871V130.137Z" fill="#FFAB15"/>
<path d="M446.171 158.021H399.694V167.313H446.171V158.021Z" fill="#FFAB15"/>
<path d="M390.395 139.429H362.51V158.021H390.395V139.429Z" fill="#FFAB15"/>
<path d="M399.694 167.313H371.81V176.605H399.694V167.313Z" fill="#FFAB15"/>
<path d="M343.918 185.905H316.034V204.497H343.918V185.905Z" fill="#FFAB15"/>
<path d="M353.218 195.197H334.626V213.789H353.218V195.197Z" fill="#FFAB15"/>
<path d="M334.626 167.313H325.334V185.905H334.626V167.313Z" fill="#FFAB15"/>
<path d="M316.034 185.905H306.742V195.197H316.034V185.905Z" fill="#FFAB15"/>
<path d="M325.326 204.497H316.034V213.789H325.326V204.497Z" fill="#FFAB15"/>
<path d="M501.939 269.565H474.055V278.858H501.939V269.565Z" fill="#330101"/>
<path d="M511.231 278.858H501.939V297.45H511.231V278.858Z" fill="#330101"/>
<path d="M520.531 297.45H511.239V306.742H520.531V297.45Z" fill="#330101"/>
<path d="M474.055 278.858H427.579V288.15H474.055V278.858Z" fill="#330101"/>
<path d="M436.871 288.15H427.579V306.742H436.871V288.15Z" fill="#330101"/>
<path d="M436.871 325.334H427.579V343.926H436.871V325.334Z" fill="#330101"/>
<path d="M446.163 306.742H436.871V325.334H446.163V306.742Z" fill="#FF433E"/>
<path d="M501.939 278.858H474.055V297.45H501.939V278.858Z" fill="#560000"/>
<path d="M474.055 288.15H436.871V306.742H474.055V288.15Z" fill="#560000"/>
<path d="M511.231 297.45H483.347V316.042H511.231V297.45Z" fill="#560000"/>
<path d="M501.939 325.334H483.347V334.626H501.939V325.334Z" fill="#560000"/>
<path d="M492.647 334.626H474.055V343.918H492.647V334.626Z" fill="#560000"/>
<path d="M501.939 316.034H492.647V325.326H501.939V316.034Z" fill="#560000"/>
<path d="M483.347 343.926H455.463V353.218H483.347V343.926Z" fill="#560000"/>
<path d="M455.463 353.218H436.871V362.51H455.463V353.218Z" fill="#560000"/>
<path d="M446.163 325.334H436.871V353.218H446.163V325.334Z" fill="#560000"/>
<path d="M455.463 306.742H446.171V325.334H455.463V306.742Z" fill="#560000"/>
<path d="M474.055 306.742H464.763V316.034H474.055V306.742Z" fill="#560000"/>
<path d="M474.055 325.334H455.463V334.626H474.055V325.334Z" fill="#560000"/>
<path d="M483.347 325.334H474.055V334.626H483.347V325.334Z" fill="#560000"/>
<path d="M483.347 297.45H474.055V325.334H483.347V297.45Z" fill="#750A0A"/>
<path d="M492.639 316.034H483.347V325.326H492.639V316.034Z" fill="#750A0A"/>
<path d="M464.755 306.742H455.463V325.334H464.755V306.742Z" fill="#750A0A"/>
<path d="M474.055 316.034H464.763V325.326H474.055V316.034Z" fill="#750A0A"/>
<path d="M455.463 325.334H446.171V343.926H455.463V325.334Z" fill="#750A0A"/>
<path d="M474.055 334.626H455.463V343.918H474.055V334.626Z" fill="#750A0A"/>
<path d="M455.463 343.926H446.171V353.218H455.463V343.926Z" fill="#750A0A"/>
<path d="M130.137 446.171H92.9525V464.763H130.137V446.171Z" fill="#750038"/>
<path d="M92.9525 455.463H83.6603V464.755H92.9525V455.463Z" fill="#750038"/>
<path d="M148.729 455.463H130.137V464.755H148.729V455.463Z" fill="#750038"/>
<path d="M83.6528 455.463H74.3605V464.755H83.6528V455.463Z" fill="#750038"/>
<path d="M204.497 464.763H185.905V483.355H204.497V464.763Z" fill="#750038"/>
<path d="M167.313 436.871H158.021V474.055H167.313V436.871Z" fill="#750038"/>
<path d="M204.49 446.171H148.721V455.463H204.49V446.171Z" fill="#3D0320"/>
<path d="M241.674 436.871H185.905V446.163H241.674V436.871Z" fill="#3D0320"/>
<path d="M223.082 455.463H195.197V464.755H223.082V455.463Z" fill="#3D0320"/>
<path d="M260.266 446.171H213.789V455.463H260.266V446.171Z" fill="#750038"/>
<path d="M223.089 474.055H204.497V492.647H223.089V474.055Z" fill="#750038"/>
<path d="M278.858 464.763H223.089V483.355H278.858V464.763Z" fill="#3D0320"/>
<path d="M260.266 455.463H241.674V464.755H260.266V455.463Z" fill="#3D0320"/>
<path d="M297.45 427.579H223.089V436.871H297.45V427.579Z" fill="#3D0320"/>
<path d="M260.266 436.871H250.973V446.163H260.266V436.871Z" fill="#750038"/>
<path d="M269.558 408.987H260.266V427.579H269.558V408.987Z" fill="#750038"/>
<path d="M316.034 418.286H269.558V427.579H316.034V418.286Z" fill="#3D0320"/>
<path d="M325.334 436.871H306.742V446.163H325.334V436.871Z" fill="#56041B"/>
<path d="M297.45 436.871H278.858V474.055H297.45V436.871Z" fill="#3D0320"/>
<path d="M316.034 464.763H306.742V474.055H316.034V464.763Z" fill="#56041B"/>
<path d="M306.742 436.871H297.45V446.163H306.742V436.871Z" fill="#56041B"/>
<path d="M306.742 464.763H297.45V474.055H306.742V464.763Z" fill="#56041B"/>
<path d="M325.326 446.171H316.034V464.763H325.326V446.171Z" fill="#7C052A"/>
<path d="M343.918 399.694H334.626V427.579H343.918V399.694Z" fill="#7C052A"/>
<path d="M334.626 399.694H316.034V408.987H334.626V399.694Z" fill="#3D0320"/>
<path d="M334.626 418.286H325.334V427.579H334.626V418.286Z" fill="#3D0320"/>
<path d="M334.626 427.579H306.742V436.871H334.626V427.579Z" fill="#3D0320"/>
<path d="M353.218 427.579H343.926V446.171H353.218V427.579Z" fill="#3D0320"/>
<path d="M343.926 436.871H325.334V446.163H343.926V436.871Z" fill="#3D0320"/>
<path d="M362.518 455.463H325.334V464.755H362.518V455.463Z" fill="#3D0320"/>
<path d="M362.518 446.171H343.926V455.463H362.518V446.171Z" fill="#7C052A"/>
<path d="M241.681 446.171H223.089V464.763H241.681V446.171Z" fill="#3D0320"/>
<path d="M269.565 446.171H250.973V464.763H269.565V446.171Z" fill="#3D0320"/>
<path d="M362.518 408.987H343.926V418.279H362.518V408.987Z" fill="#3D0320"/>
<path d="M371.803 399.694H362.51V427.579H371.803V399.694Z" fill="#3D0320"/>
<path d="M381.102 371.81H371.81V399.694H381.102V371.81Z" fill="#7C052A"/>
<path d="M436.871 390.402H381.102V399.694H436.871V390.402Z" fill="#7C052A"/>
<path d="M427.579 381.102H418.286V390.395H427.579V381.102Z" fill="#7C052A"/>
<path d="M408.987 371.81H381.102V381.102H408.987V371.81Z" fill="#7C052A"/>
<path d="M408.987 381.102H399.694V390.395H408.987V381.102Z" fill="#7C052A"/>
<path d="M418.279 399.694H408.987V418.286H418.279V399.694Z" fill="#7C052A"/>
</svg>
