<svg width="56" height="56" viewBox="0 0 56 56" fill="none" xmlns="http://www.w3.org/2000/svg">
<g clip-path="url(#clip0_10_6112)">
<path d="M50.8862 4.98913H4.99013V50.8852H50.8862V4.98913Z" fill="#039BE5"/>
<path d="M5.05199 5.05099H0V50.947H5.05199V5.05099Z" fill="#033E5A"/>
<path d="M56 5.05099H50.948V50.947H56V5.05099Z" fill="#033E5A"/>
<path d="M50.9455 5.05199V0H5.04949V5.05199H50.9455Z" fill="#066492"/>
<path d="M50.9487 7.57257V5.04658H5.05263V7.57257H50.9487Z" fill="#1FB3FB"/>
<path d="M50.9489 50.9429V48.4169H5.05291V50.9429H50.9489Z" fill="#045780"/>
<path d="M50.9435 55.998V50.946H5.0475V55.998H50.9435Z" fill="#033E5A"/>
<path d="M5.05199 2.525H2.52599V5.05099H5.05199V2.525Z" fill="#033E5A"/>
<path d="M7.57798 48.421H5.05199V50.947H7.57798V48.421Z" fill="#033E5A"/>
<path d="M50.948 48.421H48.422V50.947H50.948V48.421Z" fill="#033E5A"/>
<path d="M53.474 2.525H50.948V5.05099H53.474V2.525Z" fill="#033E5A"/>
<path d="M15.2572 26.4953L39.2018 17.1148C40.3132 16.7069 41.2838 17.3903 40.9237 19.0977L40.9257 19.0956L36.8487 38.6114C36.5466 39.995 35.7374 40.3315 34.6053 39.6796L28.3967 35.0304L25.4021 37.9617C25.071 38.2981 24.7916 38.582 24.15 38.582L24.5908 32.1622L36.0975 21.6C36.5983 21.1521 35.9857 20.8998 35.3255 21.3456L21.1057 30.4422L14.9757 28.4992C13.645 28.0702 13.616 27.1471 15.2572 26.4953Z" fill="white"/>
</g>
<defs>
<clipPath id="clip0_10_6112">
<rect width="56" height="56" fill="white"/>
</clipPath>
</defs>
</svg>
