<svg width="81" height="81" viewBox="0 0 81 81" fill="none" xmlns="http://www.w3.org/2000/svg">
<g clip-path="url(#clip0_10_8997)">
<path d="M72.8709 7.14463H7.14605V72.8695H72.8709V7.14463Z" fill="#FF1280"/>
<path d="M7.23464 7.23322H0V72.9581H7.23464V7.23322Z" fill="#9F094E"/>
<path d="M80.1942 7.23322H72.9595V72.9581H80.1942V7.23322Z" fill="#9F094E"/>
<path d="M72.956 7.23464V0H7.23107V7.23464H72.956Z" fill="#FF1280"/>
<path d="M72.9605 10.8442V7.2269H7.23557V10.8442H72.9605Z" fill="#FF58A5"/>
<path d="M72.9609 72.9522V69.3349H7.23597V72.9522H72.9609Z" fill="#BC0F5F"/>
<path d="M72.9531 80.1913V72.9567H7.22822V80.1913H72.9531Z" fill="#9F094E"/>
<path d="M7.23464 3.6159H3.61732V7.23322H7.23464V3.6159Z" fill="#9F094E"/>
<path d="M10.852 69.3408H7.23464V72.9581H10.852V69.3408Z" fill="#9F094E"/>
<path d="M72.9595 69.3408H69.3422V72.9581H72.9595V69.3408Z" fill="#9F094E"/>
<path d="M76.5769 3.6159H72.9595V7.23322H76.5769V3.6159Z" fill="#9F094E"/>
<path d="M34.7162 25.3569H34.3728C35.253 25.2972 36.1372 25.3608 36.9998 25.5458C39.2622 26.1642 41.2738 27.4762 42.7517 29.2974L43.2539 29.8898H43.9794C47.0055 29.3786 50.1153 29.7697 52.9206 31.0144C53.6226 31.3391 54.2935 31.727 54.9252 32.1734C55.0364 32.4215 55.1101 32.6848 55.1441 32.9546C55.3817 34.0026 55.2717 35.0995 54.8307 36.0795C54.7013 36.2607 54.6472 36.4851 54.6801 36.7053C54.7129 36.9256 54.83 37.1244 55.0067 37.2599C55.1469 37.3615 55.3145 37.4184 55.4875 37.4231C56.1743 37.4231 56.8611 36.3929 57.2045 34.8948V34.2981L57.4534 34.5814C58.8486 36.0808 59.792 37.9437 60.1749 39.9556V40.3849L60.0504 39.8526C59.7012 39.2898 59.2447 38.8012 58.7069 38.4146C57.2856 37.6645 55.6824 37.3284 54.0796 37.4445C52.3545 37.4063 50.6417 37.1437 48.9844 36.6633C46.7008 35.9164 45.5118 34.9162 42.7303 31.3192C41.9155 30.2106 41.0172 29.1659 40.0432 28.1942C38.6194 26.6995 36.7511 25.7044 34.7162 25.3569Z" fill="white"/>
<path d="M55.509 28.8896C55.5048 28.0729 55.6715 27.2643 55.9984 26.5159C56.0672 26.3411 56.1519 26.1729 56.2516 26.0137V26.4429C56.0671 27.2452 56.0671 28.0788 56.2516 28.881C56.4362 30.1688 56.5306 30.319 57.8742 31.6969C58.5009 32.3193 59.222 33.1349 59.501 33.4783L59.9689 34.1007L59.501 33.6328C58.7059 32.9337 57.8431 32.3153 56.9255 31.7871H56.7066C56.4877 31.7871 56.7066 32.0704 56.7066 32.8816C56.7338 33.8639 56.5294 34.8389 56.11 35.7275C55.831 36.0709 55.861 36.1568 56.11 35.7275C56.276 35.1714 56.33 34.5878 56.2688 34.0106C56.2688 31.5681 55.9855 30.8813 54.2985 30.0057L52.7275 29.1987L51.9763 28.8553C52.7783 29.0061 53.5634 29.2362 54.32 29.5421C55.2901 29.9713 55.4446 29.9713 55.5691 29.9713C55.6315 29.6109 55.611 29.241 55.509 28.8896Z" fill="white"/>
<path d="M35.8453 33.0621C34.6348 31.2979 34.0252 29.1906 34.1069 27.0526V26.4817H34.3859C35.0091 26.6319 35.6096 26.8643 36.1715 27.1728C37.2962 27.8252 37.7941 28.7653 38.262 31.036C38.3171 31.6246 38.4544 32.2025 38.6698 32.753C38.9952 33.5054 39.3935 34.2243 39.8588 34.8992C40.1721 35.3285 39.8588 35.556 39.2664 35.5216C37.8569 35.162 36.6351 34.2836 35.8453 33.0621Z" fill="white"/>
<path d="M54.1012 45.2098C48.5681 42.9906 46.5979 41.1748 46.5979 37.7838V36.9253L47.0658 37.2687C48.8212 38.4028 50.8571 39.0269 52.9465 39.0715C54.4 39.2295 55.8365 39.5168 57.239 39.93C58.7478 40.3316 60.1097 41.1579 61.1627 42.3106C62.2158 43.4634 62.9159 44.8942 63.1797 46.4331C63.3515 47.5944 63.3515 48.7745 63.1797 49.9358C62.9961 50.642 62.7067 51.3164 62.3212 51.9361V51.5927C62.2788 50.9886 62.1129 50.3996 61.8338 49.8621C61.5547 49.3246 61.1684 48.8501 60.6987 48.4678C58.6972 47.0204 56.4671 45.9191 54.1012 45.2098Z" fill="white"/>
<path d="M50.1949 46.1498C50.1264 45.7477 50.0317 45.3505 49.9116 44.9607V44.5315L50.1605 44.8148C50.5618 45.2946 50.8703 45.8448 51.0705 46.4374C51.2432 46.9404 51.3061 47.4747 51.2551 48.0041C51.2928 48.5206 51.2301 49.0395 51.0705 49.5322C50.8216 50.2308 50.4147 50.8625 49.8815 51.378C48.7491 52.4714 47.2669 53.1296 45.6964 53.2366L43.5716 53.4255C41.9586 53.4345 40.3573 53.7011 38.8284 54.2153H38.4807C38.9489 53.8755 39.4527 53.5877 39.9831 53.3568C41.3222 52.7932 42.7315 52.4135 44.1725 52.2279C45.0186 52.1287 45.8554 51.9622 46.675 51.73C47.8579 51.4161 48.8783 50.6664 49.5312 49.6313C50.1841 48.5962 50.4212 47.3524 50.1949 46.1498Z" fill="white"/>
<path d="M52.7276 50.5538C52.0163 49.166 51.8376 47.5658 52.2254 46.0553C52.2254 45.8965 52.2254 45.772 52.3842 45.772C52.5303 45.8064 52.6677 45.8707 52.7877 45.9608C53.101 46.1798 53.8222 46.5833 55.6035 47.5534C57.2632 48.3141 58.7679 49.375 60.042 50.6826C60.827 51.6655 61.334 52.841 61.51 54.0865C61.682 55.1858 61.682 56.3052 61.51 57.4046C61.2694 58.5972 60.7694 59.7222 60.0454 60.6999C59.3214 61.6776 58.3911 62.4841 57.3205 63.0621C57.1372 63.1824 56.9378 63.2764 56.7282 63.3411C56.7986 63.1386 56.8818 62.9407 56.9771 62.7487C57.3161 62.0816 57.516 61.3525 57.5647 60.6058C57.6134 59.8591 57.5099 59.1102 57.2604 58.4047C56.6814 56.98 55.9242 55.6343 55.0069 54.3998C54.1343 53.1881 53.3715 51.901 52.7276 50.5538Z" fill="white"/>
<path d="M31.9046 59.1859C33.892 57.4742 36.2971 56.3191 38.8756 55.8378C40.0646 55.6189 41.2836 55.6189 42.4727 55.8378C43.8686 56.174 45.112 56.9673 46.0054 58.0913C46.7249 59.2446 47.1658 60.5497 47.2931 61.903C47.32 62.476 47.4151 63.0438 47.5764 63.5943C47.7019 64.4568 48.1348 65.2449 48.7955 65.8135C49.3946 66.1154 50.0562 66.2727 50.7271 66.2727C51.398 66.2727 52.0596 66.1154 52.6587 65.8135C52.8142 65.7964 52.9711 65.7964 53.1266 65.8135C52.7548 66.1183 52.3569 66.3897 51.9376 66.6248C51.3277 66.9647 50.6347 67.1268 49.9373 67.0926C49.2353 67.0733 48.5508 66.8696 47.9525 66.5019C47.3543 66.1342 46.8633 65.6155 46.5291 64.9979C46.1722 64.408 45.8594 63.7925 45.5933 63.1564C44.6232 60.9029 44.121 60.2161 42.9663 59.4649C42.5067 59.1708 41.9842 58.9892 41.4413 58.9348C40.8984 58.8804 40.3502 58.9546 39.8414 59.1516C39.3317 59.3913 38.9366 59.8218 38.7415 60.3502C38.5463 60.8786 38.5667 61.4625 38.7983 61.976C38.8766 62.1404 38.9746 62.2946 39.0902 62.4353C39.5251 62.8718 40.079 63.1704 40.6827 63.2938C40.9072 63.3233 41.1352 63.3081 41.3538 63.2491C41.5724 63.1901 41.7771 63.0884 41.9562 62.95C42.1353 62.8116 42.2853 62.6391 42.3975 62.4424C42.5097 62.2458 42.582 62.029 42.61 61.8043C42.6143 61.7271 42.6143 61.6497 42.61 61.5725C42.6313 61.2711 42.55 60.9713 42.3793 60.722C42.2086 60.4726 41.9586 60.2883 41.67 60.1989C40.8115 59.8212 39.8285 60.1989 39.8585 61.1347C39.8498 61.2968 39.8935 61.4574 39.9832 61.5927C40.0729 61.728 40.2038 61.8308 40.3565 61.8859C40.2251 61.8484 40.1024 61.7852 39.9955 61.7C39.8887 61.6149 39.7998 61.5094 39.7339 61.3896C39.6681 61.2699 39.6266 61.1383 39.6119 61.0025C39.5972 60.8666 39.6095 60.7292 39.6482 60.5981C39.708 60.3842 39.8361 60.1958 40.0131 60.0616C40.4218 59.736 40.9431 59.5861 41.4623 59.6449C41.9815 59.7036 42.4561 59.9662 42.7817 60.3749C42.8583 60.4715 42.9258 60.575 42.9835 60.684C43.1852 61.3047 43.1852 61.9734 42.9835 62.5941C42.7423 63.1878 42.2885 63.6703 41.7106 63.9474C41.1328 64.2244 40.4724 64.276 39.8585 64.0922C38.8924 63.8253 38.0377 63.255 37.4204 62.4654C36.7341 61.6785 35.8888 61.046 34.9403 60.6095C33.9918 60.1729 32.9616 59.9423 31.9175 59.9328H31.3723L31.9046 59.1859Z" fill="white"/>
<path fill-rule="evenodd" clip-rule="evenodd" d="M17.2115 14.2266C23.7447 22.1376 33.7504 34.4227 34.2484 35.1138C34.7463 35.8049 34.4973 36.2041 33.8191 36.5818C33.3217 36.8283 32.7805 36.9741 32.2266 37.0111C31.7269 36.986 31.2517 36.7871 30.8831 36.4488C30.6298 36.1955 29.5352 34.603 27.0971 30.7569C25.2213 27.8166 23.6288 25.5373 23.5987 25.5373C24.582 27.5554 25.6769 29.5173 26.8782 31.4137C27.9392 33.1395 28.8995 34.9253 29.7542 36.7621C29.7542 37.1356 29.7542 37.3244 29.1918 37.8224C28.3421 38.9019 27.8701 40.2304 27.8483 41.604C27.4689 43.9587 26.3785 46.1409 24.7234 47.8582C24.0189 48.61 23.421 49.4549 22.9463 50.3693C22.5728 51.049 22.3792 51.8129 22.384 52.5885C22.3236 53.5191 22.4402 54.4527 22.7274 55.34C23.049 56.2752 23.5075 57.1576 24.0881 57.9584C24.5552 58.5649 24.9046 59.2536 25.1183 59.9887C25.1183 60.2076 25.1183 60.2076 26.1828 59.9887C28.2267 59.6354 30.1263 58.7027 31.6557 57.3016C31.9643 57.0421 32.2041 56.7104 32.3539 56.3361C32.5036 55.9617 32.5587 55.5561 32.5142 55.1554C32.5524 54.761 32.4888 54.3635 32.3296 54.0007C31.8665 53.1917 31.1833 52.5308 30.3594 52.0948C29.7643 51.7795 29.2475 51.3347 28.8471 50.7931C28.4466 50.2515 28.1728 49.627 28.0457 48.9656C27.9874 47.9067 28.2428 46.854 28.7798 45.9394C29.5321 44.5883 29.9501 43.0768 29.9988 41.5311C29.9988 40.3721 30.2177 39.8742 30.5611 39.5265C30.7602 39.3211 30.9983 39.1576 31.2615 39.0455C31.5246 38.9335 31.8075 38.8752 32.0936 38.874C33.2446 38.811 34.3429 38.3705 35.2185 37.6206C35.5129 37.3705 35.7495 37.0594 35.9118 36.7088C36.0741 36.3583 36.1583 35.9766 36.1585 35.5903V34.9249L35.7808 34.5472C34.536 33.062 16.2715 13.0376 16.2715 13.0376C16.2715 13.0376 16.6793 13.5699 17.2115 14.2266ZM25.7965 53.9621C25.9318 53.7046 25.9681 53.4065 25.8985 53.1242C25.8289 52.8418 25.6582 52.5947 25.4188 52.4297C24.9509 52.1206 24.234 52.2451 24.234 52.6829C24.2317 52.7478 24.2524 52.8114 24.2924 52.8625C24.3325 52.9135 24.3894 52.9488 24.4529 52.9619C24.7019 52.9619 24.732 53.2152 24.4529 53.5242C24.3967 53.5726 24.3515 53.6325 24.3206 53.6999C24.2896 53.7674 24.2736 53.8407 24.2736 53.9149C24.2736 53.989 24.2896 54.0623 24.3206 54.1298C24.3515 54.1972 24.3967 54.2571 24.4529 54.3055C24.528 54.3811 24.6172 54.4412 24.7156 54.4822C24.8139 54.5232 24.9194 54.5443 25.026 54.5443C25.1325 54.5443 25.238 54.5232 25.3364 54.4822C25.4347 54.4412 25.524 54.3811 25.599 54.3055C25.6954 54.2093 25.7675 54.0916 25.8094 53.9621H25.7965Z" fill="white"/>
<path fill-rule="evenodd" clip-rule="evenodd" d="M37.1114 39.2688C36.7478 39.4066 36.4221 39.6286 36.161 39.9166C35.8998 40.2047 35.7107 40.5505 35.609 40.9257C35.4976 41.4305 35.5533 41.9578 35.7678 42.4281C36.0297 42.8016 36.313 42.9346 37.1114 42.9346C38.6738 42.9346 39.9873 42.2478 40.2363 41.4365C40.2413 41.0186 40.1262 40.6079 39.9048 40.2534C39.6834 39.8988 39.3649 39.6152 38.9872 39.4363C38.3996 39.1672 37.7374 39.1081 37.1114 39.2688ZM38.9228 40.6467C39.0136 40.5116 39.0483 40.3464 39.0194 40.1862C38.9906 40.026 38.9005 39.8832 38.7683 39.7882C38.7292 39.7612 38.6875 39.7382 38.6438 39.7196C37.8926 39.2517 36.7379 39.7196 36.7379 40.3763C36.7379 41.0331 37.3303 41.1275 37.8926 41.1275C38.2788 41.1006 38.6406 40.9289 38.9056 40.6467H38.9228Z" fill="white"/>
</g>
<defs>
<clipPath id="clip0_10_8997">
<rect width="80.1942" height="80.1942" fill="white"/>
</clipPath>
</defs>
</svg>
