<svg width="69" height="68" viewBox="0 0 69 68" fill="none" xmlns="http://www.w3.org/2000/svg">
<g clip-path="url(#clip0_10_6149)">
<path d="M61.9331 6.05823H6.20226V61.7891H61.9331V6.05823Z" fill="#676767"/>
<path d="M6.27738 6.13335H0.142822V61.8642H6.27738V6.13335Z" fill="#4F4F4F"/>
<path d="M68.1428 6.13335H62.0083V61.8642H68.1428V6.13335Z" fill="#4F4F4F"/>
<path d="M62.0052 6.13456V0H6.27435V6.13456H62.0052Z" fill="#A7A7A7"/>
<path d="M62.009 9.19527V6.12799H6.27816V9.19527H62.009Z" fill="#E0E0E0"/>
<path d="M62.0094 61.8592V58.7919H6.2785V61.8592H62.0094Z" fill="#6E6E6E"/>
<path d="M62.0028 67.9976V61.863H6.27193V67.9976H62.0028Z" fill="#4F4F4F"/>
<path d="M6.27738 3.06607H3.2101V6.13335H6.27738V3.06607Z" fill="#4F4F4F"/>
<path d="M9.34466 58.797H6.27738V61.8642H9.34466V58.797Z" fill="#4F4F4F"/>
<path d="M62.0083 58.797H58.941V61.8642H62.0083V58.797Z" fill="#4F4F4F"/>
<path d="M65.0755 3.06607H62.0083V6.13335H65.0755V3.06607Z" fill="#4F4F4F"/>
<path d="M38.1001 30.6965L51.2094 15.7856H48.1029L36.7201 28.7325L27.6287 15.7856H17.1428L30.8908 35.3636L17.1428 50.9999H20.2495L32.2701 37.3276L41.8712 50.9999H52.3571L38.0993 30.6965H38.1001ZM21.3688 18.074H26.1405L48.1043 48.8156H43.3327L21.3688 18.074Z" fill="white"/>
</g>
<defs>
<clipPath id="clip0_10_6149">
<rect width="68" height="68" fill="white" transform="translate(0.142822)"/>
</clipPath>
</defs>
</svg>
